<?xml version="1.0" encoding="UTF-8"?><svg id="Lag_1" xmlns="http://www.w3.org/2000/svg" width="1262.62mm" height="731.23mm" viewBox="0 0 3579.08 2072.78"><defs><style>.cls-1{fill:none;stroke:#2c2861;stroke-miterlimit:10;stroke-width:15px;}.cls-2{fill:#faf6ce;}</style></defs><path class="cls-2" d="m-76.41-37.9c-32.25,18.97-28.62,21.05-28.62,58.47,0,37.42,37.98,37.42,37.98,74.84,0,37.42-37.98,37.42-37.98,74.84,0,37.42,37.98,37.42,37.98,74.84,0,37.42-37.98,37.42-37.98,74.84,0,37.42,37.98,37.42,37.98,74.84,0,37.42-37.98,37.42-37.98,74.84s37.98,37.42,37.98,74.84c0,37.42-37.98,37.42-37.98,74.84s37.98,37.42,37.98,74.84c0,37.42-37.98,37.42-37.98,74.84,0,37.42,37.98,37.42,37.98,74.84,0,37.42-37.98,37.42-37.98,74.84,0,37.42,37.98,37.42,37.98,74.84,0,37.42-37.98,37.42-37.98,74.84,0,37.42,37.98,37.42,37.98,74.84,0,37.42-37.98,37.42-37.98,74.84,0,37.42,37.98,37.42,37.98,74.84s-37.98,37.42-37.98,74.84c0,37.42,37.98,37.42,37.98,74.84,0,37.42-37.98,37.42-37.98,74.84,0,37.42,37.98,37.42,37.98,74.84,0,37.42-37.98,37.42-37.98,74.84s37.98,37.42,37.98,74.84c0,37.42-37.98,37.42-37.98,74.84,0,37.42,37.98,37.42,37.98,74.84,0,37.42-37.98,37.42-37.98,74.85,0,37.42,37.98,37.42,37.98,74.85,0,37.42-60.88,72.24-28.62,91.22,54.84,32.26,73.25-35.36,136.87-35.36s63.62,37.98,127.24,37.98,63.62-37.98,127.24-37.98,63.62,37.98,127.23,37.98,63.62-37.98,127.23-37.98,63.62,37.98,127.24,37.98,63.62-37.98,127.23-37.98,63.62,37.98,127.24,37.98,63.62-37.98,127.24-37.98,63.62,37.98,127.24,37.98,63.62-37.98,127.24-37.98,63.62,37.98,127.24,37.98,63.62-37.98,127.24-37.98,63.62,37.98,127.24,37.98,63.62-37.98,127.24-37.98,63.62,37.98,127.24,37.98,63.62-37.98,127.24-37.98,63.62,37.98,127.24,37.98,63.62-37.98,127.24-37.98,63.62,37.98,127.24,37.98,63.62-37.98,127.24-37.98,63.62,37.98,127.24,37.98,63.62-37.98,127.24-37.98,63.62,37.98,127.24,37.98,63.62-37.98,127.24-37.98,63.62,37.98,127.24,37.98,63.62-37.98,127.24-37.98,63.62,37.98,127.25,37.98,62.78-3.11,117.62-35.36c32.25-18.97,28.62-21.05,28.62-58.47,0-37.42-37.98-37.42-37.98-74.84,0-37.42,37.98-37.42,37.98-74.84,0-37.42-37.98-37.42-37.98-74.84s37.98-37.42,37.98-74.84c0-37.42-37.98-37.42-37.98-74.84s37.98-37.42,37.98-74.84-37.98-37.42-37.98-74.84c0-37.42,37.98-37.42,37.98-74.84s-37.98-37.42-37.98-74.84,37.98-37.42,37.98-74.84c0-37.42-37.98-37.42-37.98-74.84,0-37.42,37.98-37.42,37.98-74.84,0-37.42-37.98-37.42-37.98-74.84,0-37.42,37.98-37.42,37.98-74.84,0-37.42-37.98-37.42-37.98-74.84,0-37.42,37.98-37.42,37.98-74.84,0-37.42-37.98-37.42-37.98-74.84s37.98-37.42,37.98-74.84c0-37.42-37.98-37.42-37.98-74.84s37.98-37.42,37.98-74.84c0-37.42-37.98-37.42-37.98-74.84,0-37.42,37.98-37.42,37.98-74.84,0-37.42-37.98-37.42-37.98-74.84,0-37.42,37.98-37.42,37.98-74.84,0-37.42-37.98-37.42-37.98-74.84,0-37.42,37.98-37.42,37.98-74.85,0-37.42-37.98-37.42-37.98-74.85s60.88-72.24,28.62-91.22c-54.84-32.26-73.25,35.36-136.87,35.36-63.62,0-63.62-37.98-127.24-37.98-63.62,0-63.62,37.98-127.24,37.98-63.62,0-63.62-37.98-127.23-37.98-63.62,0-63.62,37.98-127.23,37.98-63.62,0-63.62-37.98-127.24-37.98s-63.62,37.98-127.23,37.98c-63.62,0-63.62-37.98-127.24-37.98-63.62,0-63.62,37.98-127.24,37.98-63.62,0-63.62-37.98-127.24-37.98s-63.62,37.98-127.24,37.98c-63.62,0-63.62-37.98-127.24-37.98-63.62,0-63.62,37.98-127.24,37.98-63.62,0-63.62-37.98-127.24-37.98s-63.62,37.98-127.24,37.98-63.62-37.98-127.24-37.98-63.62,37.98-127.24,37.98c-63.62,0-63.62-37.98-127.24-37.98-63.62,0-63.62,37.98-127.24,37.98-63.62,0-63.62-37.98-127.24-37.98-63.62,0-63.62,37.98-127.24,37.98s-63.62-37.98-127.24-37.98c-63.62,0-63.62,37.98-127.24,37.98-63.62,0-63.62-37.98-127.24-37.98-63.62,0-63.62,37.98-127.24,37.98-63.62,0-63.62-37.98-127.24-37.98-63.62,0-63.62,37.98-127.24,37.98-63.62,0-62.26-32.62-125.67-37.92-60.5-5.06-64.36,3.04-119.2,35.3Zm3457.79,2015.8c-47.93,28.2-65.24-35.36-120.86-35.36-55.61,0-55.61,37.98-111.23,37.98-55.61,0-55.61-37.98-111.22-37.98-55.61,0-55.61,37.98-111.22,37.98-55.61,0-55.61-37.98-111.22-37.98s-55.61,37.98-111.23,37.98c-55.61,0-55.61-37.98-111.22-37.98-55.61,0-55.61,37.98-111.23,37.98-55.61,0-55.61-37.98-111.22-37.98s-55.61,37.98-111.23,37.98c-55.61,0-55.61-37.98-111.23-37.98s-55.61,37.98-111.23,37.98c-55.61,0-55.61-37.98-111.23-37.98-55.61,0-55.61,37.98-111.23,37.98-55.61,0-55.61-37.98-111.23-37.98-55.61,0-55.61,37.98-111.23,37.98s-55.62-37.98-111.23-37.98c-55.61,0-55.61,37.98-111.23,37.98-55.61,0-55.61-37.98-111.23-37.98-55.61,0-55.61,37.98-111.23,37.98-55.61,0-55.61-37.98-111.23-37.98-55.61,0-55.61,37.98-111.23,37.98-55.62,0-55.62-37.98-111.23-37.98-55.61,0-55.61,37.98-111.23,37.98-55.62,0-55.62-37.98-111.23-37.98-55.61,0-55.61,37.98-111.23,37.98-55.62,0-55.62-37.98-111.23-37.98-55.62,0-55.62,37.98-111.24,37.98s-53.67-7.17-101.61-35.36c-28.2-16.58-28.62-16.34-28.62-49.05s37.98-32.71,37.98-65.42c0-32.71-37.98-32.71-37.98-65.42,0-32.71,37.98-32.71,37.98-65.42,0-32.71-37.98-32.71-37.98-65.42,0-32.71,37.98-32.71,37.98-65.42,0-32.71-37.98-32.71-37.98-65.42,0-32.71,37.98-32.71,37.98-65.42,0-32.71-37.98-32.71-37.98-65.42,0-32.71,37.98-32.71,37.98-65.42,0-32.71-37.98-32.71-37.98-65.42,0-32.71,37.98-32.71,37.98-65.42,0-32.71-37.98-32.71-37.98-65.42,0-32.71,37.98-32.71,37.98-65.42,0-32.71-37.98-32.71-37.98-65.42,0-32.71,37.98-32.71,37.98-65.42,0-32.71-37.98-32.71-37.98-65.42,0-32.71,37.98-32.71,37.98-65.42,0-32.71-37.98-32.71-37.98-65.42,0-32.71,37.98-32.71,37.98-65.42s-37.98-32.71-37.98-65.43,37.98-32.71,37.98-65.42c0-32.71-37.98-32.71-37.98-65.43,0-32.71,37.98-32.71,37.98-65.43,0-32.71-37.98-32.71-37.98-65.42,0-32.71,37.98-32.71,37.98-65.43s-37.98-32.71-37.98-65.43c0-32.72,37.98-32.72,37.98-65.43,0-32.72-56.82-65.21-28.62-81.8,47.93-28.2,65.24,35.36,120.86,35.36s55.61-37.98,111.23-37.98,55.61,37.98,111.22,37.98,55.61-37.98,111.22-37.98,55.61,37.98,111.22,37.98,55.61-37.98,111.23-37.98,55.61,37.98,111.22,37.98,55.61-37.98,111.23-37.98,55.61,37.98,111.22,37.98,55.61-37.98,111.23-37.98,55.61,37.98,111.23,37.98,55.61-37.98,111.23-37.98,55.61,37.98,111.23,37.98,55.61-37.98,111.23-37.98,55.61,37.98,111.23,37.98,55.61-37.98,111.23-37.98,55.62,37.98,111.23,37.98,55.61-37.98,111.23-37.98,55.61,37.98,111.23,37.98,55.61-37.98,111.23-37.98,55.61,37.98,111.23,37.98,55.61-37.98,111.23-37.98,55.62,37.98,111.23,37.98,55.61-37.98,111.23-37.98,55.62,37.98,111.23,37.98,55.61-37.98,111.23-37.98,55.62,37.98,111.23,37.98,55.62-37.98,111.24-37.98,53.67,7.17,101.61,35.36c28.2,16.58,28.62,16.34,28.62,49.05s-37.98,32.71-37.98,65.42c0,32.71,37.98,32.71,37.98,65.42,0,32.71-37.98,32.71-37.98,65.42,0,32.71,37.98,32.71,37.98,65.42s-37.98,32.71-37.98,65.42,37.98,32.71,37.98,65.42-37.98,32.71-37.98,65.42c0,32.71,37.98,32.71,37.98,65.42,0,32.71-37.98,32.71-37.98,65.42,0,32.71,37.98,32.71,37.98,65.42,0,32.71-37.98,32.71-37.98,65.42,0,32.71,37.98,32.71,37.98,65.42,0,32.71-37.98,32.71-37.98,65.42,0,32.71,37.98,32.71,37.98,65.42,0,32.71-37.98,32.71-37.98,65.42,0,32.71,37.98,32.71,37.98,65.42,0,32.71-37.98,32.71-37.98,65.42,0,32.71,37.98,32.71,37.98,65.42,0,32.71-37.98,32.71-37.98,65.42s37.98,32.71,37.98,65.43-37.98,32.71-37.98,65.42c0,32.71,37.98,32.71,37.98,65.43,0,32.71-37.98,32.71-37.98,65.43,0,32.71,37.98,32.71,37.98,65.42,0,32.71-37.98,32.71-37.98,65.43s37.98,32.71,37.98,65.43c0,32.72-46.33,39.29-37.23,70.71,12.41,42.86,56.07,59.93,27.87,76.52Z"/><path class="cls-1" d="m-76.41-37.9c-32.25,18.97-28.62,21.05-28.62,58.47,0,37.42,37.98,37.42,37.98,74.84,0,37.42-37.98,37.42-37.98,74.84,0,37.42,37.98,37.42,37.98,74.84,0,37.42-37.98,37.42-37.98,74.84,0,37.42,37.98,37.42,37.98,74.84,0,37.42-37.98,37.42-37.98,74.84s37.98,37.42,37.98,74.84c0,37.42-37.98,37.42-37.98,74.84s37.98,37.42,37.98,74.84c0,37.42-37.98,37.42-37.98,74.84,0,37.42,37.98,37.42,37.98,74.84,0,37.42-37.98,37.42-37.98,74.84,0,37.42,37.98,37.42,37.98,74.84,0,37.42-37.98,37.42-37.98,74.84,0,37.42,37.98,37.42,37.98,74.84,0,37.42-37.98,37.42-37.98,74.84,0,37.42,37.98,37.42,37.98,74.84s-37.98,37.42-37.98,74.84c0,37.42,37.98,37.42,37.98,74.84,0,37.42-37.98,37.42-37.98,74.84,0,37.42,37.98,37.42,37.98,74.84,0,37.42-37.98,37.42-37.98,74.84s37.98,37.42,37.98,74.84c0,37.42-37.98,37.42-37.98,74.84,0,37.42,37.98,37.42,37.98,74.84,0,37.42-37.98,37.42-37.98,74.85,0,37.42,37.98,37.42,37.98,74.85,0,37.42-60.88,72.24-28.62,91.22,54.84,32.26,73.25-35.36,136.87-35.36s63.62,37.98,127.24,37.98,63.62-37.98,127.24-37.98,63.62,37.98,127.23,37.98,63.62-37.98,127.23-37.98,63.62,37.98,127.24,37.98,63.62-37.98,127.23-37.98,63.62,37.98,127.24,37.98,63.62-37.98,127.24-37.98,63.62,37.98,127.24,37.98,63.62-37.98,127.24-37.98,63.62,37.98,127.24,37.98,63.62-37.98,127.24-37.98,63.62,37.98,127.24,37.98,63.62-37.98,127.24-37.98,63.62,37.98,127.24,37.98,63.62-37.98,127.24-37.98,63.62,37.98,127.24,37.98,63.62-37.98,127.24-37.98,63.62,37.98,127.24,37.98,63.62-37.98,127.24-37.98,63.62,37.98,127.24,37.98,63.62-37.98,127.24-37.98,63.62,37.98,127.24,37.98,63.62-37.98,127.24-37.98,63.62,37.98,127.24,37.98,63.62-37.98,127.24-37.98,63.62,37.98,127.25,37.98,62.78-3.11,117.62-35.36c32.25-18.97,28.62-21.05,28.62-58.47,0-37.42-37.98-37.42-37.98-74.84,0-37.42,37.98-37.42,37.98-74.84,0-37.42-37.98-37.42-37.98-74.84s37.98-37.42,37.98-74.84c0-37.42-37.98-37.42-37.98-74.84s37.98-37.42,37.98-74.84-37.98-37.42-37.98-74.84c0-37.42,37.98-37.42,37.98-74.84s-37.98-37.42-37.98-74.84,37.98-37.42,37.98-74.84c0-37.42-37.98-37.42-37.98-74.84,0-37.42,37.98-37.42,37.98-74.84,0-37.42-37.98-37.42-37.98-74.84,0-37.42,37.98-37.42,37.98-74.84,0-37.42-37.98-37.42-37.98-74.84,0-37.42,37.98-37.42,37.98-74.84,0-37.42-37.98-37.42-37.98-74.84s37.98-37.42,37.98-74.84c0-37.42-37.98-37.42-37.98-74.84s37.98-37.42,37.98-74.84c0-37.42-37.98-37.42-37.98-74.84,0-37.42,37.98-37.42,37.98-74.84,0-37.42-37.98-37.42-37.98-74.84,0-37.42,37.98-37.42,37.98-74.84,0-37.42-37.98-37.42-37.98-74.84,0-37.42,37.98-37.42,37.98-74.85,0-37.42-37.98-37.42-37.98-74.85s60.88-72.24,28.62-91.22c-54.84-32.26-73.25,35.36-136.87,35.36-63.62,0-63.62-37.98-127.24-37.98-63.62,0-63.62,37.98-127.24,37.98-63.62,0-63.62-37.98-127.23-37.98-63.62,0-63.62,37.98-127.23,37.98-63.62,0-63.62-37.98-127.24-37.98s-63.62,37.98-127.23,37.98c-63.62,0-63.62-37.98-127.24-37.98-63.62,0-63.62,37.98-127.24,37.98-63.62,0-63.62-37.98-127.24-37.98s-63.62,37.98-127.24,37.98c-63.62,0-63.62-37.98-127.24-37.98-63.62,0-63.62,37.98-127.24,37.98-63.62,0-63.62-37.98-127.24-37.98s-63.62,37.98-127.24,37.98-63.62-37.98-127.24-37.98-63.62,37.98-127.24,37.98c-63.62,0-63.62-37.98-127.24-37.98-63.62,0-63.62,37.98-127.24,37.98-63.62,0-63.62-37.98-127.24-37.98-63.62,0-63.62,37.98-127.24,37.98s-63.62-37.98-127.24-37.98c-63.62,0-63.62,37.98-127.24,37.98-63.62,0-63.62-37.98-127.24-37.98-63.62,0-63.62,37.98-127.24,37.98-63.62,0-63.62-37.98-127.24-37.98-63.62,0-63.62,37.98-127.24,37.98-63.62,0-62.26-32.62-125.67-37.92-60.5-5.06-64.36,3.04-119.2,35.3Zm3457.79,2015.8c-47.93,28.2-65.24-35.36-120.86-35.36-55.61,0-55.61,37.98-111.23,37.98-55.61,0-55.61-37.98-111.22-37.98-55.61,0-55.61,37.98-111.22,37.98-55.61,0-55.61-37.98-111.22-37.98s-55.61,37.98-111.23,37.98c-55.61,0-55.61-37.98-111.22-37.98-55.61,0-55.61,37.98-111.23,37.98-55.61,0-55.61-37.98-111.22-37.98s-55.61,37.98-111.23,37.98c-55.61,0-55.61-37.98-111.23-37.98s-55.61,37.98-111.23,37.98c-55.61,0-55.61-37.98-111.23-37.98-55.61,0-55.61,37.98-111.23,37.98-55.61,0-55.61-37.98-111.23-37.98-55.61,0-55.61,37.98-111.23,37.98s-55.62-37.98-111.23-37.98c-55.61,0-55.61,37.98-111.23,37.98-55.61,0-55.61-37.98-111.23-37.98-55.61,0-55.61,37.98-111.23,37.98-55.61,0-55.61-37.98-111.23-37.98-55.61,0-55.61,37.98-111.23,37.98-55.62,0-55.62-37.98-111.23-37.98-55.61,0-55.61,37.98-111.23,37.98-55.62,0-55.62-37.98-111.23-37.98-55.61,0-55.61,37.98-111.23,37.98-55.62,0-55.62-37.98-111.23-37.98-55.62,0-55.62,37.98-111.24,37.98s-53.67-7.17-101.61-35.36c-28.2-16.58-28.62-16.34-28.62-49.05s37.98-32.71,37.98-65.42c0-32.71-37.98-32.71-37.98-65.42,0-32.71,37.98-32.71,37.98-65.42,0-32.71-37.98-32.71-37.98-65.42,0-32.71,37.98-32.71,37.98-65.42,0-32.71-37.98-32.71-37.98-65.42,0-32.71,37.98-32.71,37.98-65.42,0-32.71-37.98-32.71-37.98-65.42,0-32.71,37.98-32.71,37.98-65.42,0-32.71-37.98-32.71-37.98-65.42,0-32.71,37.98-32.71,37.98-65.42,0-32.71-37.98-32.71-37.98-65.42,0-32.71,37.98-32.71,37.98-65.42,0-32.71-37.98-32.71-37.98-65.42,0-32.71,37.98-32.71,37.98-65.42,0-32.71-37.98-32.71-37.98-65.42,0-32.71,37.98-32.71,37.98-65.42,0-32.71-37.98-32.71-37.98-65.42,0-32.71,37.98-32.71,37.98-65.42s-37.98-32.71-37.98-65.43,37.98-32.71,37.98-65.42c0-32.71-37.98-32.71-37.98-65.43,0-32.71,37.98-32.71,37.98-65.43,0-32.71-37.98-32.71-37.98-65.42,0-32.71,37.98-32.71,37.98-65.43s-37.98-32.71-37.98-65.43c0-32.72,37.98-32.72,37.98-65.43,0-32.72-56.82-65.21-28.62-81.8,47.93-28.2,65.24,35.36,120.86,35.36s55.61-37.98,111.23-37.98,55.61,37.98,111.22,37.98,55.61-37.98,111.22-37.98,55.61,37.98,111.22,37.98,55.61-37.98,111.23-37.98,55.61,37.98,111.22,37.98,55.61-37.98,111.23-37.98,55.61,37.98,111.22,37.98,55.61-37.98,111.23-37.98,55.61,37.98,111.23,37.98,55.61-37.98,111.23-37.98,55.61,37.98,111.23,37.98,55.61-37.98,111.23-37.98,55.61,37.98,111.23,37.98,55.61-37.98,111.23-37.98,55.62,37.98,111.23,37.98,55.61-37.98,111.23-37.98,55.61,37.98,111.23,37.98,55.61-37.98,111.23-37.98,55.61,37.98,111.23,37.98,55.61-37.98,111.23-37.98,55.62,37.98,111.23,37.98,55.61-37.98,111.23-37.98,55.62,37.98,111.23,37.98,55.61-37.98,111.23-37.98,55.62,37.98,111.23,37.98,55.62-37.98,111.24-37.98,53.67,7.17,101.61,35.36c28.2,16.58,28.62,16.34,28.62,49.05s-37.98,32.71-37.98,65.42c0,32.71,37.98,32.71,37.98,65.42,0,32.71-37.98,32.71-37.98,65.42,0,32.71,37.98,32.71,37.98,65.42s-37.98,32.71-37.98,65.42,37.98,32.71,37.98,65.42-37.98,32.71-37.98,65.42c0,32.71,37.98,32.71,37.98,65.42,0,32.71-37.98,32.71-37.98,65.42,0,32.71,37.98,32.71,37.98,65.42,0,32.71-37.98,32.71-37.98,65.42,0,32.71,37.98,32.71,37.98,65.42,0,32.71-37.98,32.71-37.98,65.42,0,32.71,37.98,32.71,37.98,65.42,0,32.71-37.98,32.71-37.98,65.42,0,32.71,37.98,32.71,37.98,65.42,0,32.71-37.98,32.71-37.98,65.42,0,32.71,37.98,32.71,37.98,65.42,0,32.71-37.98,32.71-37.98,65.42s37.98,32.71,37.98,65.43-37.98,32.71-37.98,65.42c0,32.71,37.98,32.71,37.98,65.43,0,32.71-37.98,32.71-37.98,65.43,0,32.71,37.98,32.71,37.98,65.42,0,32.71-37.98,32.71-37.98,65.43s37.98,32.71,37.98,65.43c0,32.72-46.33,39.29-37.23,70.71,12.41,42.86,56.07,59.93,27.87,76.52Z"/></svg>