<?xml version="1.0" encoding="UTF-8"?><svg id="Lag_1" xmlns="http://www.w3.org/2000/svg" width="190mm" height="190mm" viewBox="0 0 538.58 538.58"><defs><style>.cls-1{fill:none;}.cls-1,.cls-2{stroke:#2d418e;stroke-miterlimit:10;stroke-width:6px;}.cls-3{fill:#992c1e;}.cls-2{fill:#ab83b4;}</style></defs><g><path class="cls-3" d="m128.73,91.62c.15-.11-.21-1.65-1.07-4.61-.86-2.96-1.71-6.14-2.54-9.52-.83-3.38-1.13-5.54-.9-6.47.21-1.01.56-1.7,1.03-2.06.47-.36,1.1-.49,1.89-.39.81.08,1.54.54,2.18,1.37.64.83,1.08,1.83,1.32,3.01.2.93,1.15,4.6,2.86,11,1.69,6.13,2.71,10,3.04,11.6.33,1.6.41,2.71.22,3.32-.22.69-.54,1.19-.96,1.51-.44.34-1.06.58-1.85.71-2.8.46-7.38-2.22-13.72-8.04-2.41-2.15-4.52-3.9-6.34-5.23-1.73-1.21-2.87-2.18-3.41-2.89-.86-1.12-.7-2.14.48-3.05,1.16-.89,2.68-.89,4.58-.02,1.89.88,4.53,2.77,7.9,5.69,2.43,2.13,3.88,3.38,4.34,3.73.46.35.78.46.96.33Z"/><path class="cls-3" d="m139.1,62.49c.57-1.08,1.72-2.14,3.44-3.18,1.18-.71,2.19-1.1,3.02-1.17.7-.07,1.39.03,2.08.31.69.28,1.17.65,1.44,1.09.1.16.15.28.15.36.35,1.23-.56,2.51-2.71,3.86-1.1.71-1.74,1.29-1.92,1.75s0,1.19.57,2.2c.55,1.06.92,1.74,1.09,2.02.13.22.38.3.72.22.35-.08.99-.35,1.92-.83,1-.51,1.7-.81,2.12-.88.41-.07.89.01,1.43.25.59.26.97.53,1.14.82.13.22.24.55.33.98.17,1.51-.83,2.92-3.01,4.23l-1.54.92,1.37,2.05,1.44,2.07,2.77-1.8c.19-.12.43-.27.71-.46s.48-.32.61-.4c.99-.6,1.85-.81,2.56-.63.77.19,1.34.59,1.7,1.2.37.61.46,1.34.27,2.19-.18.85-.62,1.64-1.32,2.36-.76.76-1.85,1.57-3.25,2.42-1.38.83-2.61,1.42-3.7,1.77-.93.26-1.88.21-2.82-.13-.5-.18-.93-.47-1.29-.89-.36-.42-1-1.39-1.92-2.93-1.17-1.95-2.21-3.7-3.1-5.26-2.4-4.13-3.83-6.69-4.29-7.68-.46-.99-.74-2.02-.82-3.1-.09-1.38.18-2.63.81-3.76Z"/><path class="cls-3" d="m156.04,51.07c.2-.88.76-1.54,1.67-1.97.74-.35,1.32-.36,1.73-.02.31.22,1.95,3.35,4.9,9.39,2.62,5.5,4.38,9,5.31,10.5.88,1.32,1.63,2.02,2.26,2.09.63.07,2.09-.37,4.36-1.33,1.94-.8,3.15-1.25,3.63-1.36.49-.11,1.01,0,1.57.31.54.28.95.69,1.2,1.23.35.74.35,1.61,0,2.61-.16.45-.49.84-.99,1.18-.5.34-1.61.92-3.33,1.74-1.85.88-3.11,1.42-3.76,1.6s-1.53.25-2.63.2c-1.02-.05-1.81-.18-2.38-.38-.57-.2-1.29-.66-2.17-1.36l-2.12-1.59-4.46-9.1c-.58-1.13-1.29-2.59-2.14-4.38-1.33-2.8-2.16-4.79-2.48-5.98-.32-1.19-.38-2.31-.17-3.36Z"/><path class="cls-3" d="m179.76,41.79c.47-.71.91-1.14,1.34-1.29.32-.11.96.08,1.93.55.97.48,1.51.87,1.62,1.19.12.35.85,1.83,2.2,4.43,1.34,2.6,2.05,3.89,2.12,3.86.18-.06,1.04-1.4,2.59-4.02,1.58-2.75,2.68-4.45,3.29-5.09.41-.42.88-.71,1.41-.9,1.02-.35,1.84-.22,2.45.4.34.32.58.65.7,1,.36,1.06-.33,3.17-2.09,6.34-1.53,2.89-2.26,4.46-2.17,4.71.1.28,2,1.11,5.71,2.49,3.78,1.35,5.77,2.17,5.99,2.45.27.34.48.72.63,1.15.27.78.22,1.52-.15,2.24s-.99,1.23-1.87,1.53c-.6.21-1.29.23-2.08.06-.79-.16-2.26-.65-4.43-1.44-3.39-1.25-5.17-1.84-5.35-1.78-.11.04.04.64.44,1.8.28.81.52,1.46.72,1.94.65,1.67,1,2.56,1.03,2.67.1.28.17.52.21.7.04.18.04.36,0,.53-.04.17-.09.32-.15.43-.06.12-.16.3-.31.55-.49.76-1.07,1.25-1.74,1.48-.74.25-1.49.15-2.23-.3-.75-.45-1.39-1.22-1.91-2.3-1.42-2.87-3.16-6.62-5.22-11.26-2.06-4.64-3.38-7.75-3.96-9.33l-.6-1.75c-.33-.95-.5-1.59-.51-1.93-.01-.33.12-.7.42-1.12Z"/><path class="cls-3" d="m214.01,30.92c1.18-.93,2.23-1.49,3.14-1.68.22-.05.88-.15,2-.3,1.94-.21,3.51-.13,4.71.25s2.52,1.24,3.94,2.59c2.53,2.45,4.16,5.47,4.91,9.05l.07.33c.53,2.75.5,5.29-.11,7.63-.6,2.34-1.72,4.25-3.36,5.73-.71.64-1.33,1.09-1.87,1.33-.54.25-1.4.49-2.56.73-4.5.93-8.38-.78-11.65-5.14-1.22-1.65-2.1-3.59-2.63-5.8-.03-.15-.08-.35-.16-.62-.08-.27-.13-.48-.16-.62-1.24-6,0-10.48,3.73-13.47Zm7.55,4.15c-1.08-.42-1.91-.58-2.5-.46-.73.15-1.47.8-2.23,1.95-1.19,1.81-1.51,4.03-.96,6.66.64,3.11,2.12,5.37,4.44,6.8,1.13.68,2.23.91,3.29.69.69-.14,1.31-.5,1.84-1.07,1.52-1.84,1.97-4.3,1.33-7.37-.34-1.64-.97-3.12-1.89-4.44-.92-1.31-2.03-2.24-3.32-2.77Z"/><path class="cls-3" d="m261.37,23.6c.65-.34,1.18-.52,1.59-.55.71-.04,1.46.27,2.25.93.71.59,1.22,1.49,1.54,2.68.32,1.2.64,3.58.98,7.15.43,4.5,1.02,8.56,1.76,12.18.43,2.07.69,3.81.77,5.23.11,1.71-.21,2.93-.95,3.65-.46.44-.95.68-1.47.71-.93.06-1.76-.38-2.49-1.3-.49-.64-.94-1.85-1.35-3.62-.41-1.77-.98-4.95-1.71-9.54-.57-3.18-.97-4.77-1.19-4.75-.15,0-.76,1.36-1.83,4.04-.77,2.1-1.46,3.53-2.06,4.28-.61.75-1.4,1.15-2.37,1.21-.82.05-1.44-.08-1.85-.39-.41-.31-1.35-1.34-2.8-3.08-.45-.53-.87-1.03-1.27-1.49-.4-.46-.73-.8-.99-1.03-.26-.23-.4-.32-.44-.28-.1.12-.18,1.97-.22,5.57-.04,3.63-.12,5.98-.26,7.06-.14,1.07-.49,1.97-1.04,2.67-.62.86-1.4,1.32-2.33,1.38-.78.05-1.49-.22-2.13-.82-.44-.42-.72-.91-.85-1.46-.13-.55-.25-1.74-.36-3.57-.16-2.65-.18-4.12-.05-4.43.17-.35.16-3.49-.02-9.42-.15-4.89-.12-7.95.1-9.18.22-1.23.86-2.08,1.92-2.56.33-.13.64-.21.94-.23.63-.04,1.27.24,1.9.84.63.6,1.37,1.62,2.21,3.06.84,1.44,2.03,3.18,3.58,5.19,1.55,2.02,2.45,3.02,2.71,3,.11,0,.9-1.53,2.35-4.58,1.32-2.85,2.35-4.87,3.1-6.06s1.52-2.01,2.32-2.47Z"/><path class="cls-3" d="m300.66,25.44c.7-.23,1.25-.33,1.66-.29.71.07,1.4.49,2.07,1.27.61.7.98,1.66,1.11,2.89.13,1.23.08,3.64-.15,7.21-.28,4.51-.33,8.61-.15,12.3.1,2.11.08,3.87-.05,5.28-.16,1.71-.67,2.86-1.51,3.46-.52.36-1.04.52-1.56.47-.93-.09-1.68-.65-2.26-1.68-.38-.71-.64-1.97-.77-3.79-.13-1.81-.2-5.04-.21-9.69-.07-3.23-.21-4.86-.44-4.88-.15-.01-.96,1.22-2.43,3.71-1.09,1.96-1.99,3.26-2.71,3.91-.72.64-1.56.92-2.53.83-.82-.08-1.41-.3-1.76-.67-.36-.37-1.12-1.53-2.29-3.48-.36-.6-.7-1.15-1.02-1.67-.33-.52-.6-.91-.82-1.17-.22-.26-.35-.38-.39-.35-.12.1-.48,1.92-1.08,5.47-.6,3.58-1.06,5.89-1.36,6.93-.3,1.04-.79,1.87-1.44,2.48-.75.75-1.58,1.09-2.51,1-.78-.07-1.44-.45-1.97-1.14-.37-.48-.57-1.01-.61-1.58-.04-.57.03-1.76.2-3.58.25-2.64.46-4.1.64-4.38.22-.32.7-3.42,1.44-9.31.61-4.85,1.12-7.87,1.53-9.05.41-1.18,1.17-1.92,2.29-2.23.34-.08.67-.11.96-.08.63.06,1.21.43,1.75,1.12.53.69,1.1,1.81,1.71,3.37.6,1.56,1.51,3.45,2.72,5.69,1.21,2.23,1.95,3.36,2.21,3.39.11.01,1.12-1.37,3.04-4.16,1.75-2.61,3.08-4.44,4.01-5.5.92-1.06,1.82-1.75,2.67-2.08Z"/><path class="cls-3" d="m319.74,30.58c1.16-.39,2.72-.37,4.69.07,1.35.3,2.35.71,2.99,1.24.55.43.99.99,1.29,1.67.31.68.4,1.28.29,1.79-.04.18-.09.31-.14.37-.6,1.13-2.14,1.44-4.62.92-1.28-.25-2.15-.27-2.6-.06-.45.21-.82.87-1.1,1.99-.33,1.15-.54,1.89-.61,2.22-.06.25.07.47.37.66.3.18.96.42,1.96.72,1.08.32,1.79.59,2.14.82.35.23.64.62.86,1.17.25.59.34,1.05.27,1.38-.06.25-.2.57-.44.93-.92,1.21-2.62,1.54-5.1.99l-1.75-.39-.43,2.43-.38,2.5,3.25.61c.22.05.49.1.83.16s.57.1.72.13c1.13.25,1.89.69,2.29,1.31.42.67.56,1.35.41,2.04-.15.69-.59,1.28-1.31,1.77-.72.49-1.58.76-2.59.8-1.08.03-2.42-.14-4.02-.49-1.57-.35-2.87-.77-3.91-1.27-.86-.46-1.51-1.14-1.96-2.04-.24-.47-.35-.98-.32-1.53.03-.55.23-1.7.62-3.45.49-2.22.96-4.21,1.38-5.95,1.11-4.65,1.84-7.49,2.18-8.52.34-1.03.86-1.97,1.54-2.81.89-1.07,1.95-1.79,3.18-2.16Z"/><path class="cls-3" d="m338.23,38.54c.67-1.33,1.42-2.21,2.28-2.63s1.47-.57,1.86-.44c.42.14,1.05.81,1.87,1.99.55.82,1.08,2.11,1.59,3.88.51,1.77,1.21,4.75,2.12,8.96.17,1,.4,1.55.68,1.65.25.08.99-1.7,2.22-5.34,1.22-3.61,2.14-5.64,2.77-6.1.58-.43,1.28-.51,2.09-.24.78.26,1.35.77,1.73,1.53.23.47.18,1.34-.17,2.6-.35,1.26-1.4,4.61-3.15,10.05-.65,2.03-1.41,4.35-2.29,6.97-.75,2.23-1.26,3.6-1.54,4.12s-.63.86-1.08,1.02c-.83.35-1.51.44-2.04.26-.85-.29-1.6-1.28-2.25-2.97-.65-1.7-1.36-4.45-2.12-8.25-1.01-4.95-1.62-7.46-1.83-7.53-.18-.06-1.05,2.01-2.63,6.21-1.37,3.48-2.33,5.69-2.89,6.65s-1.25,1.47-2.06,1.55c-.61.07-1.12.04-1.5-.09-.46-.16-.93-.63-1.41-1.42l-.76-1.26,3.81-9.71c2.48-6.29,4.05-10.11,4.72-11.44Z"/><path class="cls-3" d="m382.94,50.32c.52-.08,1.11,0,1.75.27.64.27,2.1,1.06,4.35,2.37.42.24,1.27.75,2.55,1.52,1.28.77,2.39,1.42,3.33,1.97,4.93,2.95,7.96,4.8,9.08,5.54,1.12.74,1.75,1.37,1.89,1.88.24.7.19,1.34-.15,1.92-.3.52-.81.87-1.52,1.06-.51.13-1.1.06-1.76-.21-.66-.28-2.07-1.04-4.23-2.3l-4.94-2.87-2.63,5.08c-4.12,7.75-6.66,12.45-7.62,14.1-.92,1.58-1.68,2.52-2.29,2.82-.99.51-1.91.51-2.79,0-.42-.24-.77-.58-1.04-.99-.46-.7-.63-1.29-.51-1.79.15-.56,2.17-4.33,6.06-11.31l5.89-10.57-3.3-2.12c-2.18-1.44-3.48-2.56-3.88-3.36-.37-.78-.39-1.44-.08-1.99.3-.52.91-.85,1.82-1.01Z"/><path class="cls-3" d="m413.69,74.85c.98.5,2.54,1.53,4.7,3.07l.85.64c1.46,1.1,2.24,2.02,2.34,2.75.06.66-.11,1.25-.51,1.79-.38.51-.91.86-1.57,1.06-.67.2-1.31.15-1.94-.13-.62-.23-1.32.03-2.11.79-.79.76-2.32,2.65-4.6,5.65l-3.58,4.73.77.93c1.06,1.32,1.15,2.56.27,3.72-.63.83-1.39,1.15-2.27.95-.88-.2-2.35-1.01-4.41-2.43-.44-.29-.99-.68-1.64-1.17-1.16-.88-1.91-1.62-2.25-2.23s-.37-1.27-.1-2c.01-.08.09-.21.23-.39.29-.39.77-.68,1.44-.88.67-.2,1.27-.23,1.83-.09.42.13.8.08,1.14-.16s1.02-.93,2.03-2.08c1.34-1.46,2.97-3.46,4.89-5.99l2.6-3.44-.98-.74c-.68-.52-1.06-1.23-1.13-2.12-.13-.94-.01-1.65.35-2.13.34-.45.83-.68,1.48-.7.65-.02,1.38.18,2.18.6Z"/><path class="cls-3" d="m432.15,84.61c.89-.14,1.71.13,2.45.81.6.56.82,1.09.66,1.6-.09.37-2.38,3.06-6.88,8.05-4.12,4.48-6.71,7.42-7.76,8.84-.9,1.3-1.26,2.26-1.09,2.88.17.61,1.12,1.8,2.86,3.55,1.46,1.5,2.33,2.45,2.61,2.86s.38.94.3,1.57c-.05.61-.28,1.13-.69,1.57-.56.6-1.36.93-2.42.97-.47.02-.96-.14-1.47-.47-.5-.34-1.45-1.15-2.85-2.44-1.51-1.39-2.48-2.36-2.89-2.89-.42-.54-.81-1.33-1.17-2.37-.33-.96-.51-1.75-.53-2.36-.03-.61.12-1.45.45-2.52l.69-2.56,6.78-7.53c.83-.96,1.92-2.17,3.26-3.62,2.1-2.28,3.64-3.79,4.63-4.53.99-.74,2-1.21,3.05-1.41Z"/><path class="cls-3" d="m474.44,131.4c.64.37,1.08.71,1.32,1.04.42.57.56,1.37.44,2.39-.11.92-.59,1.83-1.42,2.75-.83.91-2.66,2.48-5.48,4.69-3.55,2.79-6.65,5.49-9.29,8.07-1.51,1.48-2.83,2.64-3.98,3.48-1.38,1.02-2.58,1.41-3.58,1.17-.62-.15-1.08-.43-1.39-.85-.55-.75-.64-1.69-.25-2.8.28-.76,1.05-1.79,2.32-3.09,1.27-1.3,3.63-3.5,7.1-6.61,2.37-2.2,3.48-3.39,3.35-3.57-.09-.12-1.55.1-4.39.65-2.19.49-3.76.69-4.72.58-.96-.11-1.73-.55-2.3-1.33-.49-.66-.71-1.25-.67-1.77.04-.51.4-1.85,1.08-4.02.21-.66.4-1.29.57-1.88.17-.59.28-1.05.33-1.39.05-.34.05-.51,0-.52-.16-.02-1.76.92-4.8,2.83-3.07,1.93-5.1,3.13-6.08,3.6-.98.46-1.92.66-2.81.57-1.06-.06-1.87-.46-2.42-1.21-.46-.63-.62-1.38-.46-2.23.12-.6.38-1.1.77-1.5.4-.41,1.33-1.15,2.8-2.24,2.14-1.57,3.37-2.38,3.7-2.44.38-.05,3.02-1.76,7.91-5.12,4.03-2.78,6.62-4.4,7.78-4.88s2.22-.4,3.19.23c.29.2.52.43.7.67.38.51.48,1.2.33,2.05-.16.86-.62,2.03-1.38,3.51-.76,1.49-1.57,3.42-2.43,5.82-.86,2.39-1.21,3.69-1.06,3.9.07.09,1.77-.08,5.12-.5,3.11-.43,5.37-.65,6.77-.67,1.4-.01,2.51.19,3.33.61Z"/><path class="cls-3" d="m480.88,149.46c.69.85,1.72,2.42,3.08,4.69l.52.93c.89,1.6,1.24,2.75,1.04,3.46-.21.63-.6,1.11-1.19,1.44-.55.31-1.17.42-1.86.34s-1.26-.38-1.72-.9c-.47-.46-1.22-.5-2.25-.12-1.03.38-3.18,1.5-6.47,3.34l-5.18,2.9.33,1.16c.44,1.63.03,2.81-1.24,3.52-.91.51-1.73.5-2.46-.03-.73-.53-1.75-1.87-3.07-3.99-.29-.44-.63-1.02-1.03-1.73-.71-1.27-1.1-2.25-1.17-2.94-.07-.69.17-1.32.71-1.88.05-.07.17-.16.36-.27.42-.24.98-.31,1.67-.23.69.08,1.26.3,1.71.65.33.29.7.39,1.11.31.41-.08,1.3-.44,2.69-1.09,1.82-.8,4.11-1.98,6.88-3.53l3.76-2.11-.6-1.08c-.42-.75-.48-1.55-.19-2.4.26-.91.65-1.52,1.17-1.81.49-.27,1.04-.29,1.64-.05.6.24,1.19.71,1.76,1.42Z"/><path class="cls-3" d="m489.41,167.62c1.43-.39,2.59-.42,3.48-.06.88.35,1.41.72,1.57,1.09.18.41.1,1.32-.23,2.72-.24.96-.85,2.21-1.82,3.77-.98,1.56-2.73,4.08-5.25,7.56-.63.8-.89,1.34-.77,1.61.1.24,1.92-.4,5.45-1.92,3.5-1.5,5.63-2.17,6.39-2.01.71.14,1.24.61,1.58,1.4.32.75.33,1.52.02,2.31-.2.49-.88,1.03-2.05,1.61-1.17.58-4.37,2.04-9.58,4.36-1.94.87-4.18,1.86-6.72,2.95-2.16.93-3.53,1.46-4.09,1.61-.57.14-1.06.1-1.49-.12-.81-.38-1.33-.83-1.55-1.34-.35-.82-.12-2.04.71-3.66.83-1.62,2.4-3.98,4.73-7.09,3.01-4.06,4.47-6.19,4.38-6.39-.07-.17-2.2.56-6.37,2.19-3.5,1.3-5.8,2.06-6.88,2.29-1.08.22-1.93.06-2.53-.5-.46-.41-.77-.81-.93-1.18-.19-.45-.15-1.11.12-2l.43-1.41,9.77-3.65c6.34-2.36,10.23-3.74,11.67-4.13Z"/><path class="cls-3" d="m510.9,212.77c.65.81,1.14,1.96,1.48,3.45.26,1.13.36,2.22.29,3.27-.03,1.04-.49,2.37-1.38,3.99-1.39,2.46-3.32,3.98-5.79,4.55-.25.06-.65.11-1.17.15-2.64.18-5.21-.6-7.72-2.36-2.51-1.76-4.07-3.86-4.66-6.29l-.44-1.91-7.91,1.82c-3.78.87-6.1,1.36-6.96,1.48-.85.12-1.5.04-1.95-.24-.89-.52-1.43-1.22-1.63-2.1-.15-.66-.06-1.3.27-1.93.33-.63.88-1.15,1.63-1.55.77-.33,4.75-1.32,11.96-2.98l4.31-.99c7.07-1.58,11.4-2.5,12.99-2.75s2.72-.24,3.4.02c.51.23.94.57,1.3,1.02.35.46.71,1.04,1.06,1.74.35.7.67,1.23.94,1.59Zm-4.17,5.61c.09-.6.1-1.06.03-1.38-.07-.29-.34-.8-.81-1.54-.32-.54-.72-.86-1.22-.95-.5-.1-1.35,0-2.55.27-.73.17-1.31.32-1.73.46l-3.13.89.31,1.08c.43,1.36,1.34,2.52,2.75,3.48,1.41.96,2.68,1.31,3.8,1.05.62-.14,1.18-.54,1.68-1.19.5-.65.8-1.37.88-2.16Z"/><path class="cls-3" d="m514.98,241.1c.81,1.27,1.26,2.36,1.36,3.29.02.22.06.89.1,2.02.02,1.95-.22,3.5-.72,4.67s-1.48,2.38-2.96,3.67c-2.69,2.28-5.85,3.61-9.49,3.99l-.33.04c-2.79.26-5.32-.03-7.58-.86-2.27-.83-4.06-2.13-5.37-3.91-.57-.77-.95-1.43-1.14-1.99-.19-.56-.35-1.44-.48-2.62-.49-4.57,1.6-8.26,6.26-11.08,1.77-1.05,3.78-1.73,6.03-2.05.15-.02.36-.05.64-.1.28-.05.49-.08.64-.1,6.09-.65,10.43,1.03,13.04,5.04Zm-4.88,7.11c.53-1.03.76-1.85.7-2.44-.08-.74-.65-1.54-1.72-2.41-1.68-1.36-3.86-1.9-6.54-1.62-3.16.33-5.56,1.58-7.2,3.75-.79,1.06-1.13,2.13-1.01,3.21.08.7.37,1.35.88,1.93,1.68,1.7,4.08,2.38,7.2,2.05,1.67-.18,3.21-.66,4.61-1.45,1.4-.79,2.43-1.8,3.08-3.03Z"/><path class="cls-3" d="m518.77,270.43c.27,1.31.4,2.53.38,3.65-.03,1.75-.38,3.26-1.04,4.52-.97,1.81-2.15,3.12-3.55,3.94-1.4.81-3.25,1.27-5.57,1.38-.11,0-.27,0-.48.02-.21.01-.35.02-.42.02-2.54-.05-5.15-1.31-7.82-3.79l-2.04-1.89-1.84,2.48c-1.3,1.73-2.68,3.33-4.13,4.79-1.56,1.5-2.81,2.24-3.74,2.22-.67-.01-1.34-.36-2-1.05-.62-.65-.93-1.23-.92-1.75.02-.86.96-2.35,2.83-4.48,1.53-1.65,2.86-3.26,4.01-4.82s1.73-2.51,1.74-2.85l-.05-.11c-.11-.11-.99-.19-2.63-.22l-1.51-.03-1.51-.03c-1.04-.02-1.75-.09-2.12-.21-.37-.12-.76-.39-1.16-.81-.66-.68-.98-1.21-.98-1.59.01-.56.21-1.14.59-1.75.39-.61.82-1.02,1.31-1.23.79-.32,5.78-.6,14.97-.83,5.83-.19,9.9-.25,12.21-.21,1.57.03,2.67.18,3.3.46,1,.43,1.55.98,1.65,1.66.03.34.2,1.18.51,2.53Zm-6.46,6.6c.8-.88,1.21-1.81,1.23-2.78.02-1.04-.1-1.73-.35-2.05-.25-.32-.96-.5-2.12-.52-.78-.02-1.91.02-3.36.1-3.47.08-5.25.2-5.33.34-.08.07-.12.17-.12.28-.01.56.49,1.42,1.52,2.58,1.02,1.16,2.01,1.99,2.98,2.49.81.43,1.74.69,2.79.78h.28c.82.02,1.65-.39,2.49-1.23Z"/><path class="cls-3" d="m517.27,299.22c.27.46.39,1.04.37,1.73-.02.7-.23,2.33-.65,4.92-.08.48-.24,1.45-.5,2.93-.26,1.47-.47,2.74-.64,3.81-.99,5.66-1.63,9.15-1.91,10.47-.29,1.31-.65,2.13-1.07,2.44-.57.48-1.18.66-1.85.55-.59-.09-1.1-.44-1.53-1.04-.31-.43-.45-1-.43-1.71.02-.72.23-2.31.63-4.78l.91-5.64-5.68-.63c-8.72-1.06-14.01-1.75-15.89-2.05-1.81-.29-2.96-.67-3.45-1.12-.83-.74-1.16-1.6-1-2.6.08-.48.26-.92.55-1.33.49-.68.98-1.05,1.49-1.12.58-.06,4.82.47,12.73,1.6l11.98,1.7.79-3.84c.56-2.56,1.14-4.17,1.74-4.82.59-.62,1.2-.88,1.83-.78.59.09,1.12.54,1.6,1.33Z"/><path class="cls-3" d="m506.86,339.18c-.19,1.19-.54,2.64-1.05,4.36l-.3,1.02c-.51,1.6-.88,2.6-1.11,3-.23.4-.65.7-1.26.91-.69.22-1.23.28-1.62.17-.14-.04-.31-.13-.5-.27-.74-.41-1.17-1.08-1.3-2.02s.01-2.33.44-4.19l.75-3.34-4.62-1.36-.45,2.32c-.18.88-.29,1.39-.33,1.54-.2.68-.5,1.17-.9,1.49-.91.71-1.9.9-2.97.59-.97-.28-1.58-.93-1.82-1.94-.13-.62-.07-1.69.18-3.21l.38-2.28-5.2-1.58c-2.54-.75-4.06-1.24-4.55-1.48-.49-.24-.89-.7-1.2-1.38-.39-.78-.49-1.51-.29-2.19.2-.68.69-1.24,1.48-1.67.6-.33,1.18-.46,1.72-.4.54.06,1.9.39,4.06.99,1.37.36,2.8.73,4.28,1.11,1.48.38,2.64.69,3.46.93,1.75.52,3.46,1.06,5.13,1.62l5.94,2.04.98,1.63c.64,1.12.88,2.32.7,3.59Z"/><path class="cls-3" d="m499.58,363.62c.1,1.5-.03,2.68-.39,3.54-.09.21-.38.81-.88,1.82-.92,1.72-1.88,2.97-2.88,3.74-.99.78-2.45,1.37-4.36,1.78-3.45.7-6.86.34-10.24-1.08l-.31-.13c-2.57-1.12-4.64-2.59-6.23-4.41-1.58-1.82-2.53-3.82-2.82-6.01-.13-.95-.14-1.71-.04-2.29.1-.58.39-1.43.85-2.53,1.78-4.23,5.39-6.46,10.83-6.69,2.05-.07,4.14.3,6.27,1.12.14.06.34.13.6.22.27.09.47.17.6.22,5.65,2.37,8.64,5.94,8.99,10.7Zm-7.7,3.88c.96-.65,1.56-1.25,1.79-1.8.29-.69.17-1.67-.35-2.94-.82-2-2.47-3.53-4.95-4.57-2.93-1.23-5.63-1.29-8.12-.19-1.2.55-2.01,1.32-2.43,2.32-.27.65-.33,1.36-.16,2.12.65,2.3,2.43,4.06,5.32,5.27,1.55.65,3.12.97,4.73.95,1.61-.01,2.99-.4,4.16-1.17Z"/><path class="cls-3" d="m489.4,387.92c.34.84.27,1.69-.23,2.57-.4.71-.87,1.05-1.41,1.01-.38,0-3.52-1.62-9.41-4.86-5.3-2.99-8.76-4.84-10.38-5.54-1.48-.58-2.49-.71-3.05-.4-.56.31-1.49,1.5-2.8,3.6-1.12,1.77-1.86,2.83-2.19,3.2-.34.37-.82.58-1.46.65-.61.09-1.17-.02-1.69-.31-.71-.4-1.21-1.11-1.5-2.13-.13-.46-.08-.97.13-1.54.21-.57.79-1.68,1.72-3.34,1.01-1.79,1.73-2.95,2.16-3.48s1.11-1.09,2.04-1.68c.86-.54,1.59-.9,2.17-1.06.58-.16,1.44-.21,2.55-.14l2.65.08,8.88,4.88c1.12.59,2.55,1.37,4.27,2.35,2.7,1.52,4.52,2.68,5.47,3.47.95.79,1.64,1.67,2.07,2.65Z"/><path class="cls-3" d="m472.23,409.08c-.47.99-1.43,2.6-2.89,4.81l-.61.87c-1.05,1.5-1.94,2.31-2.66,2.44-.65.09-1.26-.06-1.81-.44-.52-.36-.89-.88-1.12-1.53-.22-.66-.21-1.3.06-1.94.21-.63-.08-1.32-.87-2.08-.79-.76-2.73-2.22-5.82-4.38l-4.87-3.4-.9.8c-1.28,1.11-2.51,1.25-3.71.42-.86-.6-1.2-1.34-1.04-2.23.16-.89.92-2.39,2.26-4.5.27-.45.64-1.01,1.11-1.68.83-1.19,1.55-1.97,2.14-2.33.59-.36,1.26-.42,2-.17.08.01.22.08.4.21.4.28.71.75.93,1.4s.28,1.26.16,1.82c-.11.42-.05.8.2,1.13.25.33.96.98,2.16,1.95,1.51,1.29,3.57,2.84,6.17,4.66l3.53,2.47.71-1.01c.49-.7,1.18-1.11,2.08-1.21.94-.17,1.65-.08,2.14.26.46.32.71.8.76,1.45.05.65-.12,1.38-.51,2.2Z"/><path class="cls-3" d="m459.21,431.33c-.38,1.46-.87,2.53-1.49,3.24-.15.17-.62.65-1.41,1.45-1.42,1.34-2.72,2.22-3.91,2.65-1.19.42-2.76.53-4.7.32-3.5-.42-6.62-1.83-9.38-4.24l-.25-.22c-2.09-1.87-3.6-3.92-4.53-6.14-.93-2.23-1.2-4.42-.79-6.59.17-.94.4-1.67.68-2.19.28-.52.82-1.23,1.6-2.13,3.02-3.46,7.14-4.45,12.38-2.95,1.97.58,3.84,1.59,5.61,3.03.11.1.28.23.5.4s.39.3.5.4c4.61,4.02,6.34,8.35,5.18,12.98Zm-8.53,1.26c1.12-.32,1.87-.7,2.26-1.15.49-.56.69-1.53.59-2.9-.15-2.16-1.23-4.12-3.26-5.89-2.39-2.09-4.94-3-7.65-2.73-1.31.14-2.33.62-3.04,1.44-.47.53-.74,1.19-.82,1.96-.1,2.39,1.03,4.61,3.39,6.67,1.27,1.1,2.66,1.9,4.19,2.39,1.53.49,2.97.56,4.32.2Z"/><path class="cls-3" d="m411.2,452.07c-.15.11.22,1.65,1.1,4.61.88,2.96,1.75,6.12,2.61,9.5.86,3.38,1.17,5.53.95,6.46-.21,1.01-.54,1.7-1.02,2.07-.47.37-1.1.5-1.89.4-.81-.08-1.54-.52-2.19-1.35-.64-.83-1.09-1.83-1.34-3-.2-.93-1.19-4.59-2.95-10.98-1.74-6.12-2.78-9.98-3.13-11.58-.35-1.6-.43-2.71-.25-3.32.22-.69.54-1.2.95-1.52.44-.34,1.06-.59,1.85-.73,2.8-.48,7.39,2.17,13.78,7.94,2.42,2.14,4.55,3.86,6.38,5.18,1.74,1.2,2.88,2.15,3.44,2.86.87,1.12.72,2.14-.46,3.05-1.15.89-2.67.91-4.58.05s-4.55-2.74-7.94-5.63c-2.45-2.11-3.91-3.35-4.37-3.7-.46-.35-.78-.46-.96-.32Z"/><path class="cls-3" d="m401.06,481.28c-.56,1.09-1.7,2.16-3.42,3.21-1.18.72-2.18,1.12-3.01,1.19-.7.08-1.39-.02-2.09-.3-.69-.28-1.18-.64-1.45-1.08-.1-.16-.15-.28-.16-.36-.36-1.23.54-2.52,2.68-3.88,1.1-.71,1.73-1.3,1.91-1.76.18-.46-.02-1.19-.59-2.2-.56-1.06-.93-1.73-1.1-2.02-.14-.22-.38-.29-.72-.21-.34.08-.98.36-1.91.84-.99.52-1.7.82-2.11.9-.41.08-.89,0-1.43-.24-.59-.25-.97-.52-1.15-.81-.14-.22-.25-.55-.33-.98-.18-1.51.81-2.93,2.98-4.25l1.53-.94-1.38-2.04-1.46-2.06-2.76,1.82c-.19.12-.42.27-.7.46-.28.19-.48.33-.61.4-.99.6-1.84.82-2.56.65-.77-.18-1.34-.58-1.71-1.18-.37-.61-.47-1.33-.29-2.19.18-.85.61-1.65,1.3-2.37.75-.77,1.83-1.58,3.23-2.44,1.37-.84,2.6-1.44,3.69-1.8.93-.27,1.88-.23,2.83.11.5.17.93.47,1.29.88.36.41,1.01,1.38,1.95,2.91,1.19,1.94,2.24,3.69,3.14,5.24,2.43,4.11,3.88,6.66,4.35,7.64.47.98.75,2.01.84,3.09.1,1.38-.16,2.64-.78,3.76Z"/><path class="cls-3" d="m384.17,492.84c-.19.88-.75,1.54-1.65,1.98-.74.36-1.32.37-1.73.03-.31-.22-1.97-3.34-4.97-9.35-2.66-5.48-4.45-8.96-5.38-10.46-.88-1.31-1.64-2-2.28-2.07s-2.08.39-4.35,1.36c-1.93.81-3.14,1.27-3.62,1.38-.48.11-1.01.01-1.57-.29-.55-.27-.95-.68-1.21-1.22-.36-.74-.36-1.61-.02-2.6.16-.45.48-.85.98-1.19.5-.34,1.6-.93,3.32-1.76,1.85-.9,3.1-1.44,3.75-1.63.65-.19,1.53-.27,2.63-.22,1.02.05,1.81.17,2.39.37.57.2,1.3.65,2.17,1.34l2.13,1.58,4.52,9.07c.59,1.12,1.31,2.58,2.18,4.36,1.35,2.79,2.19,4.78,2.52,5.97.33,1.19.39,2.31.2,3.36Z"/><path class="cls-3" d="m360.52,502.3c-.46.72-.9,1.15-1.33,1.3-.32.11-.96-.07-1.94-.54-.97-.47-1.52-.86-1.63-1.18-.12-.35-.87-1.82-2.23-4.41-1.36-2.59-2.08-3.87-2.15-3.85-.18.06-1.03,1.41-2.56,4.04-1.56,2.76-2.65,4.47-3.25,5.12-.41.42-.87.72-1.4.91-1.02.36-1.84.23-2.45-.39-.35-.31-.58-.65-.71-1-.37-1.06.31-3.18,2.04-6.35,1.51-2.91,2.23-4.48,2.14-4.73-.1-.28-2.01-1.1-5.72-2.44-3.79-1.32-5.79-2.12-6.01-2.4-.28-.34-.49-.72-.64-1.14-.27-.78-.23-1.52.13-2.24.36-.72.98-1.23,1.86-1.54.6-.21,1.29-.24,2.08-.08.79.16,2.27.63,4.44,1.41,3.4,1.22,5.18,1.8,5.36,1.74.11-.04-.04-.64-.45-1.8-.28-.81-.53-1.46-.74-1.94-.66-1.67-1.01-2.55-1.05-2.66-.1-.28-.17-.51-.21-.7-.04-.18-.05-.36,0-.53.04-.17.09-.32.14-.44.06-.12.16-.3.31-.55.48-.76,1.06-1.26,1.73-1.5.74-.26,1.49-.17,2.24.28.75.45,1.39,1.21,1.93,2.29,1.44,2.86,3.21,6.6,5.3,11.23,2.1,4.62,3.44,7.72,4.03,9.3l.61,1.74c.33.95.51,1.59.53,1.92.02.33-.12.7-.41,1.12Z"/><path class="cls-3" d="m326.4,513.4c-1.17.94-2.21,1.51-3.13,1.7-.22.05-.88.15-1.99.32-1.94.22-3.51.15-4.71-.22-1.21-.37-2.53-1.22-3.96-2.56-2.55-2.43-4.21-5.43-4.98-9.01l-.07-.33c-.55-2.75-.54-5.29.05-7.63.58-2.34,1.69-4.26,3.32-5.75.7-.65,1.32-1.1,1.86-1.34.54-.25,1.39-.5,2.56-.75,4.49-.97,8.38.72,11.68,5.05,1.23,1.64,2.12,3.57,2.68,5.78.03.15.09.35.16.62.08.27.13.48.16.62,1.29,5.99.08,10.48-3.62,13.5Zm-7.58-4.1c1.08.42,1.92.56,2.5.44.73-.16,1.47-.81,2.21-1.97,1.17-1.82,1.48-4.04.91-6.67-.67-3.1-2.17-5.36-4.49-6.77-1.14-.67-2.23-.89-3.29-.67-.69.15-1.3.51-1.83,1.08-1.51,1.85-1.94,4.31-1.28,7.38.35,1.64,1,3.12,1.93,4.43.93,1.31,2.04,2.22,3.34,2.75Z"/><path class="cls-3" d="m279.03,521.09c-.65.34-1.18.53-1.59.56-.71.05-1.46-.25-2.25-.91-.71-.59-1.23-1.48-1.56-2.67-.33-1.19-.67-3.58-1.03-7.14-.46-4.5-1.08-8.55-1.85-12.17-.44-2.07-.71-3.8-.81-5.22-.12-1.71.19-2.93.92-3.66.46-.44.94-.68,1.47-.72.93-.06,1.77.36,2.5,1.29.49.64.95,1.84,1.37,3.61.42,1.77,1.02,4.94,1.78,9.53.59,3.18,1,4.76,1.23,4.74.15,0,.75-1.36,1.8-4.05.75-2.11,1.43-3.54,2.03-4.29.6-.75,1.39-1.16,2.36-1.23.82-.06,1.44.07,1.85.38.42.31,1.36,1.33,2.82,3.06.45.53.88,1.02,1.28,1.48.41.46.74.8,1,1.03.26.22.41.32.44.28.1-.12.16-1.98.17-5.57.01-3.63.08-5.98.21-7.06.13-1.08.47-1.97,1.02-2.68.61-.87,1.39-1.33,2.32-1.4.78-.05,1.49.21,2.13.81.44.42.73.9.86,1.46.13.55.26,1.74.39,3.57.18,2.64.21,4.12.08,4.43-.16.35-.13,3.49.09,9.42.19,4.89.18,7.95-.04,9.18-.21,1.23-.85,2.09-1.9,2.57-.33.13-.64.21-.94.23-.63.04-1.27-.23-1.91-.82s-1.38-1.61-2.23-3.04c-.85-1.44-2.05-3.16-3.61-5.17-1.56-2.01-2.47-3-2.73-2.98-.11,0-.88,1.54-2.32,4.6-1.3,2.86-2.32,4.88-3.06,6.08-.74,1.19-1.51,2.02-2.3,2.49Z"/><path class="cls-3" d="m239.75,519.54c-.7.24-1.25.34-1.66.31-.71-.06-1.4-.48-2.08-1.25-.61-.69-.99-1.65-1.12-2.88s-.11-3.63.09-7.21c.24-4.51.26-8.62.06-12.3-.12-2.11-.11-3.87.01-5.28.15-1.71.64-2.87,1.48-3.47.52-.37,1.04-.53,1.56-.48.93.08,1.69.63,2.27,1.66.39.71.65,1.97.79,3.78.14,1.81.23,5.04.28,9.69.09,3.23.25,4.86.47,4.88.15.01.95-1.23,2.4-3.72,1.07-1.97,1.96-3.28,2.68-3.93.71-.65,1.55-.93,2.52-.85.82.07,1.41.29,1.77.66.36.37,1.13,1.52,2.31,3.46.36.59.71,1.15,1.04,1.66.33.51.61.9.83,1.17.22.26.35.38.39.34.12-.1.47-1.93,1.04-5.47.58-3.59,1.01-5.9,1.31-6.94.3-1.04.77-1.87,1.43-2.49.74-.76,1.58-1.1,2.51-1.02.78.07,1.44.44,1.98,1.13.37.48.58,1.01.62,1.57.04.57-.01,1.76-.17,3.58-.23,2.64-.43,4.1-.61,4.39-.21.32-.67,3.43-1.38,9.32-.57,4.86-1.06,7.88-1.46,9.06-.4,1.18-1.16,1.93-2.28,2.25-.34.08-.67.11-.96.08-.63-.05-1.22-.42-1.76-1.11-.54-.68-1.12-1.8-1.73-3.35-.61-1.55-1.54-3.44-2.77-5.67-1.23-2.22-1.97-3.35-2.24-3.37-.11,0-1.11,1.38-3.01,4.18-1.73,2.62-3.05,4.46-3.97,5.53-.92,1.06-1.8,1.76-2.66,2.1Z"/><path class="cls-3" d="m220.62,514.53c-1.15.4-2.72.39-4.69-.03-1.35-.29-2.35-.7-3-1.22-.56-.43-.99-.98-1.31-1.66-.31-.68-.41-1.27-.3-1.78.04-.18.08-.31.14-.37.59-1.13,2.13-1.45,4.62-.96,1.29.24,2.15.25,2.6.04.45-.21.81-.88,1.09-2,.32-1.15.52-1.89.59-2.22.05-.26-.07-.47-.38-.65-.3-.18-.96-.42-1.97-.71-1.08-.31-1.79-.58-2.15-.8-.35-.23-.64-.62-.87-1.16-.25-.59-.35-1.05-.28-1.38.05-.26.2-.57.43-.94.91-1.22,2.61-1.56,5.09-1.03l1.75.38.41-2.43.37-2.5-3.25-.58c-.22-.05-.5-.1-.83-.15-.33-.05-.57-.09-.72-.13-1.13-.24-1.9-.67-2.3-1.3-.43-.67-.57-1.34-.42-2.04.15-.69.58-1.29,1.3-1.78.72-.5,1.58-.77,2.58-.82,1.08-.04,2.42.12,4.02.46,1.57.34,2.87.75,3.91,1.24.86.45,1.51,1.13,1.97,2.03.24.47.35.98.33,1.53-.02.55-.22,1.7-.6,3.45-.48,2.23-.92,4.21-1.34,5.96-1.08,4.66-1.78,7.5-2.12,8.54s-.84,1.98-1.52,2.82c-.88,1.07-1.93,1.8-3.16,2.18Z"/><path class="cls-3" d="m202.05,506.7c-.66,1.34-1.41,2.22-2.26,2.65-.85.43-1.47.58-1.86.45-.43-.14-1.05-.8-1.88-1.98-.56-.81-1.1-2.1-1.62-3.86-.52-1.76-1.25-4.74-2.18-8.94-.18-1-.41-1.55-.7-1.64-.25-.08-.97,1.7-2.18,5.36-1.19,3.62-2.1,5.66-2.72,6.12-.58.44-1.27.52-2.09.26-.78-.26-1.36-.76-1.74-1.52-.24-.47-.19-1.34.15-2.6.34-1.26,1.37-4.62,3.08-10.07.63-2.03,1.38-4.36,2.24-6.99.74-2.23,1.24-3.61,1.51-4.13.27-.52.63-.86,1.08-1.03.83-.36,1.5-.45,2.04-.27.85.28,1.61,1.27,2.27,2.96.66,1.69,1.39,4.44,2.18,8.23,1.05,4.94,1.67,7.45,1.89,7.52.18.06,1.04-2.02,2.58-6.23,1.34-3.49,2.29-5.71,2.84-6.67.55-.96,1.23-1.48,2.05-1.57.61-.07,1.12-.04,1.51.08.46.15.94.62,1.42,1.41l.77,1.25-3.74,9.74c-2.43,6.31-3.98,10.14-4.63,11.47Z"/><path class="cls-3" d="m157.29,495.28c-.52.09-1.11,0-1.75-.26-.65-.26-2.1-1.04-4.37-2.34-.42-.24-1.28-.74-2.56-1.5-1.29-.76-2.4-1.4-3.34-1.94-4.95-2.92-8-4.74-9.13-5.48-1.13-.73-1.76-1.35-1.9-1.86-.25-.7-.2-1.34.13-1.92.3-.52.8-.88,1.51-1.07.51-.14,1.1-.07,1.76.2.66.27,2.08,1.03,4.25,2.27l4.96,2.83,2.59-5.1c4.06-7.78,6.57-12.5,7.51-14.15.91-1.59,1.66-2.53,2.26-2.83.98-.51,1.91-.52,2.79-.02.42.24.77.57,1.05.99.46.7.64,1.29.53,1.79-.15.56-2.14,4.35-5.98,11.36l-5.81,10.61,3.32,2.09c2.2,1.43,3.5,2.54,3.9,3.33.38.77.41,1.43.09,1.99-.3.52-.9.86-1.81,1.03Z"/><path class="cls-3" d="m126.37,470.98c-.98-.5-2.55-1.51-4.72-3.03l-.85-.64c-1.47-1.09-2.25-2.01-2.36-2.74-.07-.66.1-1.25.5-1.79.38-.51.9-.87,1.57-1.07.67-.2,1.31-.17,1.94.12.62.23,1.32-.04,2.1-.81.78-.77,2.3-2.66,4.55-5.69l3.55-4.76-.78-.93c-1.07-1.31-1.17-2.55-.3-3.72.62-.84,1.38-1.16,2.26-.97.88.19,2.36.99,4.43,2.4.44.28.99.67,1.65,1.16,1.17.87,1.92,1.61,2.26,2.21.34.6.38,1.27.11,2-.01.08-.09.21-.22.39-.29.39-.77.69-1.43.89s-1.27.24-1.83.11c-.42-.13-.8-.07-1.14.17-.34.24-1.01.93-2.02,2.09-1.33,1.47-2.95,3.48-4.84,6.03l-2.58,3.46.99.74c.69.51,1.07,1.22,1.15,2.11.14.94.03,1.65-.33,2.13-.33.45-.83.69-1.48.72-.65.03-1.38-.17-2.19-.58Z"/><path class="cls-3" d="m107.84,461.36c-.89.15-1.71-.11-2.46-.79-.61-.55-.83-1.08-.67-1.59.09-.37,2.36-3.07,6.82-8.1,4.09-4.51,6.65-7.47,7.69-8.9.89-1.31,1.24-2.27,1.07-2.89-.17-.61-1.14-1.79-2.89-3.53-1.47-1.49-2.35-2.44-2.64-2.85-.28-.41-.39-.93-.31-1.57.05-.61.28-1.14.68-1.58.55-.61,1.36-.94,2.41-.99.47-.02.96.13,1.47.46.51.33,1.46,1.14,2.87,2.42,1.52,1.38,2.49,2.34,2.92,2.87.42.53.82,1.32,1.18,2.36.34.96.52,1.75.55,2.35.03.61-.11,1.45-.43,2.52l-.67,2.57-6.73,7.58c-.82.96-1.9,2.18-3.23,3.65-2.08,2.29-3.61,3.82-4.59,4.56-.98.75-1.99,1.23-3.04,1.44Z"/><path class="cls-3" d="m65.2,414.89c-.64-.36-1.08-.7-1.33-1.03-.42-.57-.58-1.36-.45-2.39.11-.92.57-1.84,1.4-2.76.83-.92,2.64-2.5,5.45-4.73,3.53-2.82,6.61-5.54,9.22-8.14,1.5-1.49,2.81-2.66,3.95-3.51,1.38-1.03,2.57-1.43,3.58-1.2.62.14,1.09.42,1.4.84.56.75.65,1.68.27,2.8-.27.76-1.03,1.8-2.29,3.11-1.26,1.31-3.61,3.53-7.05,6.66-2.35,2.22-3.46,3.42-3.32,3.6.09.12,1.55-.11,4.38-.68,2.18-.51,3.75-.72,4.71-.62.96.1,1.73.54,2.31,1.32.49.66.72,1.25.68,1.76-.04.52-.38,1.86-1.05,4.03-.2.66-.39,1.29-.55,1.88-.17.59-.27,1.05-.32,1.39-.05.34-.05.51,0,.52.16.02,1.75-.93,4.78-2.87,3.06-1.96,5.08-3.17,6.05-3.64.98-.47,1.91-.67,2.81-.59,1.06.05,1.87.45,2.43,1.19.47.63.63,1.37.48,2.23-.11.6-.37,1.1-.76,1.51-.39.41-1.32,1.16-2.79,2.26-2.12,1.58-3.35,2.41-3.68,2.47-.38.05-3,1.78-7.87,5.18-4.01,2.81-6.59,4.45-7.74,4.94-1.15.49-2.21.42-3.19-.2-.29-.2-.53-.42-.7-.66-.38-.51-.49-1.19-.34-2.05.15-.86.6-2.03,1.35-3.53.75-1.49,1.55-3.44,2.39-5.83.84-2.4,1.18-3.7,1.03-3.91-.07-.09-1.77.09-5.12.54-3.11.46-5.36.7-6.77.72-1.4.02-2.51-.17-3.34-.58Z"/><path class="cls-3" d="m58.62,396.86c-.7-.85-1.74-2.41-3.11-4.67l-.53-.92c-.91-1.59-1.26-2.74-1.07-3.45.2-.63.59-1.11,1.18-1.44.55-.31,1.17-.43,1.86-.35.69.08,1.27.37,1.73.88.48.46,1.23.49,2.25.1,1.02-.39,3.17-1.52,6.45-3.39l5.16-2.94-.34-1.16c-.46-1.63-.05-2.81,1.21-3.53.91-.52,1.73-.51,2.46.02.73.53,1.77,1.85,3.1,3.97.29.44.64,1.01,1.05,1.72.72,1.26,1.12,2.24,1.19,2.93.07.69-.16,1.32-.7,1.88-.05.07-.17.16-.36.27-.42.24-.98.32-1.67.24-.69-.08-1.26-.29-1.72-.63-.33-.28-.7-.38-1.11-.3-.41.08-1.3.45-2.69,1.11-1.81.82-4.09,2.01-6.85,3.58l-3.75,2.14.61,1.07c.43.75.49,1.54.21,2.4-.25.92-.64,1.52-1.15,1.82-.49.28-1.03.3-1.64.06-.61-.23-1.2-.7-1.77-1.41Z"/><path class="cls-3" d="m49.96,378.78c-1.43.4-2.59.43-3.48.09-.88-.35-1.41-.71-1.58-1.08-.18-.41-.11-1.32.21-2.72.23-.96.83-2.22,1.79-3.78.96-1.56,2.7-4.1,5.2-7.6.63-.8.88-1.34.76-1.62-.1-.24-1.92.41-5.44,1.96-3.49,1.53-5.61,2.22-6.37,2.06-.71-.14-1.24-.6-1.58-1.38-.33-.75-.34-1.52-.03-2.31.19-.49.87-1.03,2.04-1.63,1.17-.59,4.35-2.07,9.55-4.44,1.93-.89,4.17-1.89,6.7-3,2.15-.95,3.52-1.49,4.08-1.64.57-.15,1.06-.11,1.49.11.82.38,1.34.82,1.56,1.33.36.82.13,2.04-.69,3.66s-2.37,4-4.67,7.12c-2.98,4.08-4.43,6.22-4.34,6.43.08.17,2.19-.57,6.36-2.24,3.49-1.33,5.78-2.11,6.86-2.34,1.08-.23,1.93-.07,2.53.48.46.41.78.8.94,1.18.2.44.16,1.11-.1,2l-.42,1.41-9.74,3.72c-6.32,2.41-10.2,3.81-11.63,4.22Z"/><path class="cls-3" d="m28.13,333.81c-.65-.8-1.15-1.95-1.51-3.44-.27-1.13-.37-2.21-.32-3.26.02-1.04.47-2.38,1.35-4,1.37-2.47,3.29-4,5.76-4.59.25-.06.64-.11,1.17-.16,2.64-.2,5.22.56,7.74,2.3,2.52,1.74,4.09,3.82,4.71,6.25l.45,1.91,7.9-1.88c3.78-.9,6.09-1.41,6.95-1.54.85-.12,1.5-.05,1.95.23.89.52,1.44,1.21,1.65,2.08.16.65.07,1.3-.26,1.93-.33.63-.87,1.16-1.61,1.56-.76.33-4.74,1.36-11.93,3.07l-4.3,1.02c-7.05,1.64-11.38,2.59-12.96,2.85-1.59.26-2.72.26-3.4,0-.51-.22-.95-.56-1.31-1.01-.36-.45-.71-1.03-1.07-1.73-.36-.7-.68-1.23-.95-1.59Zm4.13-5.64c-.09.6-.09,1.06-.02,1.39.07.29.34.8.82,1.53.32.54.73.85,1.23.95.5.09,1.35,0,2.55-.29.73-.17,1.3-.33,1.73-.47l3.12-.92-.31-1.08c-.44-1.35-1.36-2.51-2.78-3.46-1.41-.95-2.69-1.29-3.81-1.02-.62.15-1.17.55-1.67,1.2-.5.66-.79,1.38-.87,2.16Z"/><path class="cls-3" d="m23.84,305.49c-.82-1.26-1.28-2.35-1.39-3.28-.03-.22-.06-.89-.12-2.02-.03-1.95.19-3.51.68-4.67.49-1.16,1.47-2.39,2.93-3.69,2.67-2.29,5.82-3.65,9.46-4.06l.33-.04c2.79-.28,5.32-.01,7.59.8s4.07,2.1,5.4,3.87c.58.76.96,1.42,1.16,1.98.2.56.36,1.43.5,2.62.52,4.56-1.54,8.27-6.17,11.13-1.76,1.06-3.76,1.76-6.02,2.09-.15.02-.36.05-.64.1-.28.05-.49.08-.64.1-6.08.69-10.44-.95-13.07-4.94Zm4.82-7.14c-.52,1.04-.75,1.85-.68,2.44.08.74.66,1.54,1.74,2.39,1.69,1.35,3.88,1.87,6.55,1.57,3.15-.36,5.54-1.63,7.18-3.8.78-1.07,1.11-2.14.99-3.21-.08-.7-.38-1.35-.9-1.93-1.69-1.69-4.1-2.35-7.22-2-1.67.19-3.2.68-4.59,1.48-1.39.8-2.42,1.82-3.06,3.05Z"/><path class="cls-3" d="m19.8,276.08c-.28-1.31-.41-2.53-.39-3.65.03-1.75.37-3.26,1.03-4.52.96-1.81,2.14-3.13,3.54-3.95,1.39-.82,3.25-1.28,5.57-1.39.11,0,.27,0,.48-.02.21-.01.35-.02.42-.02,2.54.04,5.15,1.3,7.84,3.77l2.04,1.88,1.83-2.49c1.3-1.73,2.67-3.34,4.11-4.81,1.56-1.5,2.8-2.25,3.73-2.24.67.01,1.34.36,2,1.04.62.65.93,1.23.92,1.75-.01.86-.95,2.36-2.82,4.49-1.52,1.66-2.85,3.27-4,4.84-1.15,1.57-1.72,2.52-1.73,2.86l.05.11c.11.11.99.18,2.63.21l1.51.02,1.51.02c1.05.02,1.75.08,2.12.2.37.12.76.39,1.16.8.66.68.99,1.21.98,1.58,0,.56-.21,1.14-.59,1.75-.38.61-.82,1.02-1.31,1.24-.79.32-5.78.62-14.97.88-5.83.21-9.9.29-12.21.25-1.57-.03-2.67-.17-3.3-.45-1-.43-1.55-.98-1.65-1.65-.03-.34-.2-1.18-.52-2.53Zm6.44-6.62c-.8.88-1.21,1.81-1.22,2.78-.02,1.05.1,1.73.36,2.05.26.32.96.49,2.12.51.78.01,1.91-.03,3.36-.11,3.47-.09,5.25-.21,5.33-.36.08-.07.11-.17.12-.28,0-.56-.5-1.42-1.53-2.57-1.03-1.16-2.02-1.98-2.98-2.49-.81-.42-1.74-.68-2.79-.77h-.28c-.82-.02-1.65.4-2.49,1.24Z"/><path class="cls-3" d="m21.12,247.38c-.27-.46-.4-1.03-.39-1.73.01-.7.22-2.34.61-4.92.07-.48.23-1.46.48-2.93.25-1.47.45-2.74.61-3.82.95-5.67,1.56-9.17,1.83-10.48.28-1.32.63-2.13,1.05-2.44.56-.48,1.18-.67,1.84-.57.59.09,1.11.43,1.54,1.03.31.43.46,1,.45,1.71-.02.72-.21,2.31-.59,4.78l-.87,5.65,5.69.59c8.72,1,14.02,1.64,15.91,1.93,1.81.28,2.96.64,3.46,1.1.83.73,1.17,1.6,1.02,2.59-.07.48-.25.92-.54,1.33-.48.68-.97,1.06-1.48,1.13-.58.06-4.82-.44-12.74-1.5l-11.99-1.61-.76,3.85c-.54,2.56-1.11,4.17-1.71,4.84-.59.63-1.19.89-1.82.8-.59-.09-1.13-.53-1.61-1.32Z"/><path class="cls-3" d="m31.23,207.36c.18-1.19.52-2.65,1.01-4.37l.29-1.02c.5-1.61.86-2.61,1.09-3.01.23-.4.65-.71,1.25-.92.69-.23,1.23-.29,1.62-.18.14.04.31.13.51.26.74.41,1.18,1.07,1.32,2.01.14.93,0,2.33-.41,4.19l-.72,3.35,4.63,1.32.43-2.32c.17-.88.28-1.39.32-1.54.19-.68.49-1.18.89-1.49.9-.71,1.89-.92,2.97-.61.97.28,1.58.92,1.84,1.92.13.62.08,1.69-.16,3.22l-.36,2.28,5.21,1.54c2.55.73,4.07,1.21,4.57,1.45.5.24.9.69,1.21,1.37.4.77.5,1.5.31,2.18-.19.68-.68,1.24-1.47,1.68-.6.33-1.17.47-1.72.41-.55-.06-1.9-.38-4.07-.96-1.37-.35-2.8-.71-4.29-1.08-1.49-.37-2.64-.67-3.47-.9-1.76-.5-3.47-1.03-5.14-1.58l-5.95-1.99-.99-1.62c-.65-1.12-.89-2.31-.72-3.58Z"/><path class="cls-3" d="m38.32,182.85c-.11-1.5.01-2.68.37-3.54.08-.21.38-.81.87-1.82.91-1.72,1.86-2.98,2.85-3.76.99-.78,2.44-1.39,4.35-1.82,3.45-.72,6.86-.39,10.25,1l.31.13c2.58,1.1,4.66,2.55,6.26,4.36,1.6,1.81,2.55,3.8,2.87,5.99.14.94.16,1.71.06,2.29-.1.59-.38,1.43-.83,2.54-1.75,4.25-5.34,6.5-10.78,6.77-2.05.09-4.15-.27-6.28-1.07-.14-.06-.34-.13-.61-.22-.27-.09-.47-.16-.61-.22-5.66-2.33-8.69-5.87-9.07-10.63Zm7.67-3.93c-.96.66-1.55,1.26-1.77,1.81-.28.69-.16,1.67.37,2.94.83,2,2.49,3.51,4.98,4.53,2.93,1.21,5.64,1.25,8.12.13,1.2-.56,2-1.34,2.41-2.34.27-.66.32-1.36.14-2.12-.67-2.29-2.46-4.04-5.36-5.23-1.55-.64-3.13-.94-4.74-.92-1.61.03-2.99.43-4.16,1.2Z"/><path class="cls-3" d="m48.31,158.49c-.35-.83-.28-1.69.21-2.57.4-.72.86-1.06,1.4-1.02.38,0,3.53,1.6,9.45,4.79,5.32,2.95,8.8,4.77,10.42,5.46,1.48.56,2.5.69,3.05.38.56-.31,1.48-1.52,2.77-3.62,1.11-1.77,1.83-2.85,2.17-3.22.33-.37.82-.59,1.46-.66.61-.09,1.17,0,1.69.3.72.4,1.22,1.11,1.51,2.12.13.46.09.97-.12,1.54s-.77,1.68-1.7,3.35c-1,1.8-1.71,2.96-2.13,3.49-.42.53-1.1,1.1-2.03,1.69-.86.55-1.58.91-2.16,1.07-.58.17-1.43.22-2.55.15l-2.65-.06-8.92-4.82c-1.13-.58-2.56-1.35-4.29-2.31-2.71-1.5-4.54-2.65-5.49-3.43-.95-.78-1.65-1.66-2.09-2.63Z"/><path class="cls-3" d="m65.35,137.17c.46-1,1.41-2.61,2.85-4.83l.6-.88c1.04-1.51,1.92-2.33,2.65-2.46.65-.09,1.26.05,1.81.43.52.36.9.87,1.13,1.52.23.66.21,1.3-.04,1.94-.21.63.09,1.32.89,2.07.8.75,2.75,2.2,5.86,4.33l4.89,3.36.9-.81c1.27-1.12,2.5-1.27,3.7-.44.86.59,1.21,1.33,1.05,2.22-.16.89-.9,2.39-2.23,4.52-.27.45-.63,1.02-1.1,1.69-.83,1.2-1.53,1.98-2.12,2.35s-1.26.43-2,.19c-.08-.01-.22-.08-.4-.21-.4-.27-.71-.74-.94-1.4-.23-.66-.29-1.26-.18-1.82.11-.42.04-.8-.21-1.13-.25-.33-.97-.97-2.17-1.93-1.52-1.27-3.59-2.81-6.21-4.61l-3.55-2.44-.7,1.02c-.49.71-1.18,1.12-2.07,1.23-.93.17-1.65.09-2.14-.25-.46-.32-.72-.8-.77-1.45s.11-1.38.5-2.21Z"/><path class="cls-3" d="m78.19,114.85c.37-1.46.85-2.54,1.46-3.25.15-.17.61-.66,1.4-1.46,1.41-1.35,2.7-2.24,3.89-2.68,1.18-.43,2.75-.55,4.7-.36,3.5.4,6.64,1.79,9.41,4.17l.25.22c2.1,1.85,3.62,3.89,4.57,6.11.95,2.22,1.23,4.41.84,6.59-.17.94-.39,1.67-.67,2.2-.28.53-.81,1.24-1.58,2.15-2.99,3.48-7.11,4.5-12.36,3.04-1.98-.56-3.85-1.56-5.63-2.99-.11-.1-.28-.23-.51-.4s-.39-.3-.51-.4c-4.64-3.99-6.4-8.3-5.27-12.94Zm8.52-1.32c-1.11.32-1.87.71-2.25,1.16-.49.57-.68,1.53-.57,2.9.16,2.16,1.27,4.11,3.31,5.87,2.41,2.07,4.96,2.96,7.67,2.67,1.31-.15,2.32-.64,3.03-1.46.46-.54.73-1.19.8-1.97.08-2.39-1.07-4.61-3.44-6.65-1.27-1.09-2.68-1.88-4.21-2.36-1.53-.48-2.97-.54-4.32-.17Z"/></g><path class="cls-2" d="m268.54,265.69s-99.52-85.02-141.12,0c0,0-9.92,89.3,141.12,0Z"/><path class="cls-2" d="m268.88,266.63s-119.33,55.49-78.8,113.76c0,0,96.05,52.91,78.8-113.76Z"/><path class="cls-2" d="m268.54,266.63s16.28,116.65,92.09,88.72c0,0,87.15-88.72-92.09-88.72Z"/><path class="cls-2" d="m266.2,266.63s-120.34-77.28-38.63-125.46c0,0,102.25-16.8,38.63,125.46Z"/><path class="cls-2" d="m268.54,266.63s120.66,4.88,97.15-59.59c0,0-48.57-81.63-97.15,59.59Z"/><ellipse class="cls-2" cx="238.08" cy="209.83" rx=".32" ry="1.54"/><ellipse class="cls-2" cx="258.13" cy="201.98" rx=".32" ry="1.54" transform="translate(-36.06 57.49) rotate(-11.88)"/><polyline class="cls-1" points="243.09 222.76 268.54 266.63 262.89 222.76"/><polyline class="cls-1" points="304.55 234.97 268.54 266.63 318.63 290.64"/><polyline class="cls-1" points="291.27 299.97 268.54 266.63 260.02 301.77"/><polyline class="cls-1" points="238.08 301.77 268.54 266.63 226.32 266.63"/><ellipse class="cls-2" cx="326.29" cy="294.39" rx=".32" ry="1.54" transform="translate(-107.39 365.49) rotate(-51.37)"/><ellipse class="cls-2" cx="215.59" cy="266.29" rx=".32" ry="1.54" transform="translate(-64.53 463.57) rotate(-86.16)"/><ellipse class="cls-2" cx="313.31" cy="227.8" rx="1.54" ry=".32" transform="translate(-73.63 209.56) rotate(-33.32)"/><ellipse class="cls-2" cx="297" cy="307.54" rx=".32" ry="1.54" transform="translate(-125.55 242.41) rotate(-37.24)"/><ellipse class="cls-2" cx="257.63" cy="313.57" rx="1.54" ry=".32" transform="translate(-90.98 521.35) rotate(-81.39)"/><ellipse class="cls-2" cx="229.88" cy="308.02" rx="1.54" ry=".32" transform="translate(-150.47 252.77) rotate(-45)"/></svg>