<?xml version="1.0" encoding="UTF-8"?><svg id="Lag_1" xmlns="http://www.w3.org/2000/svg" width="314.67mm" height="72.87mm" viewBox="0 0 891.98 206.55"><defs><style>.cls-1{fill:none;stroke:#992c1e;stroke-miterlimit:10;stroke-width:7px;}</style></defs><path class="cls-1" d="m40,169.93l-1.37-.1c-4.23-.45-7.62-2.28-10.16-5.47-2.21-2.8-3.32-6.38-3.32-10.74l.1-1.76c.59-6.51.96-12.29,1.12-17.33.16-5.04.28-10.69.34-16.94l.1-12.11c0-16.93-.55-33.89-1.66-50.88-.13-1.69-.2-3.25-.2-4.69,0-4.75.93-8.33,2.78-10.74,1.86-2.41,6.4-4.26,13.62-5.57,3.65-.72,7.26-1.59,10.84-2.64,3.97-1.17,7.81-1.76,11.52-1.76,8.79,0,18.23,3.52,28.32,10.55,4.88,3.39,8.14,7.57,9.77,12.55,1.63,4.98,2.44,10.3,2.44,15.97v9.08c0,11.2-1.95,22.04-5.86,32.52-4.82,12.44-13.8,19.47-26.95,21.09l-7.42.88c-2.6.33-4.54,1.14-5.81,2.44-1.27,1.3-1.9,3.35-1.9,6.15v2.34c0,1.24-.05,2.38-.15,3.42-.1,1.04-.28,2.18-.54,3.42-.26,1.24-.52,2.87-.78,4.88-.78,5.21-2.6,9.15-5.47,11.82-2.6,2.41-5.73,3.61-9.38,3.61Zm19.43-68.16c2.99,0,5.47-.28,7.42-.83,1.95-.55,3.32-1.61,4.1-3.17s1.37-3.55,1.76-5.96c.2-1.17.46-2.44.78-3.81.98-4.82,1.46-9.7,1.46-14.65v-3.91c-.2-4.75-2.12-8.27-5.76-10.55-2.08-1.3-4.36-1.95-6.84-1.95-1.76,0-3.61.36-5.57,1.07-2.34.91-3.52,2.28-3.52,4.1v.29c.72,11.78,1.46,24.87,2.25,39.26l3.91.1Z"/><path class="cls-1" d="m158.96,170.13c-9.12,0-17.48-3.97-25.1-11.91-9.9-11-15.23-23.79-16.02-38.38l-.1-5.47c0-11.07.33-20.07.98-27,.65-6.93,2.02-13.69,4.1-20.26,2.34-7.68,5.7-14.7,10.06-21.04,4.36-6.35,10.61-11.28,18.75-14.79,3.32-1.37,6.64-2.05,9.96-2.05,4.23,0,8.4,1.14,12.5,3.42,11,5.86,18.95,13.41,23.83,22.66,6.45,12.17,9.67,26.4,9.67,42.68,0,12.96-2.44,26.5-7.32,40.62-4.1,11.98-11.95,20.96-23.54,26.95-6.19,3.06-12.11,4.59-17.77,4.59Zm1.17-29.98c2.86-.2,5.21-1.27,7.03-3.22,2.28-2.47,4-5.47,5.18-8.98,2.73-8.59,4.39-17.22,4.98-25.88l.1-4.39c0-7.23-1.04-14.49-3.12-21.78-.98-3.91-2.77-7.49-5.37-10.74-3.52-4.04-6.48-6.05-8.89-6.05-.2,0-.94.08-2.25.24-1.3.16-3.11,2.93-5.42,8.3-2.31,5.37-3.76,10.95-4.35,16.75-.52,5.14-.78,10.32-.78,15.53v7.81c0,3.26.15,6.79.44,10.6s1.29,7.76,2.98,11.87c1.11,2.87,2.33,5.21,3.66,7.03,1.33,1.82,3.27,2.8,5.81,2.93Z"/><path class="cls-1" d="m283.78,126.09c1.43,1.82,2.86,3.71,4.3,5.66,3.97,5.6,7.1,10.16,9.38,13.67.91,1.37,1.59,2.41,2.05,3.12,2.21,3.26,3.11,6.32,2.69,9.18-.42,2.87-1.77,5.47-4.05,7.81-2.21,2.34-4.77,3.73-7.67,4.15-2.9.42-6.01-.31-9.33-2.2-.98-.65-2.67-2.54-5.08-5.66-2.41-3.12-5-6.64-7.76-10.55-2.77-3.91-5.22-7.42-7.37-10.55-2.28-3.25-3.65-5.14-4.1-5.66l-.59-.78h-.1c-1.3,1.37-1.92,3.55-1.86,6.54.13,2.15.11,3.84-.05,5.08-.16,1.24-.38,2.48-.63,3.71-.2,1.24-.46,2.87-.78,4.88-.78,5.21-2.62,9.15-5.52,11.82-2.9,2.67-6.43,3.84-10.6,3.52-4.3-.45-7.7-2.28-10.21-5.47-2.51-3.19-3.6-7.36-3.27-12.5.59-6.51.96-12.29,1.12-17.33.16-5.04.28-10.69.34-16.94v-1.95c.26-20.31-.26-40.66-1.56-61.04-.65-7.23.08-12.21,2.2-14.94,2.12-2.73,6.79-4.75,14.01-6.05,3.65-.72,7.26-1.59,10.84-2.64,7.49-2.21,14.5-2.34,21.04-.39s12.81,5.01,18.8,9.18c4.88,3.39,8.14,7.57,9.77,12.55,1.63,4.98,2.44,10.3,2.44,15.97.06,1.69.1,3.42.1,5.18-.07.78-.1,1.56-.1,2.34.2,11.72-1.76,23.08-5.86,34.08-2.8,7.23-7,12.63-12.6,16.21Zm-12.21-38.09c1.11-5.6,1.56-11.33,1.37-17.19v-1.37c-.2-4.75-2.12-8.25-5.76-10.5-3.65-2.25-7.78-2.55-12.4-.93-1.04.39-1.89.91-2.54,1.56-.65.65-.98,1.6-.98,2.83.59,9.51,1.14,18.98,1.66,28.42.2,3.65.39,7.26.59,10.84,4.95.26,8.56.07,10.84-.59,2.28-.65,3.81-1.76,4.59-3.32s1.37-3.55,1.76-5.96c.2-1.17.49-2.44.88-3.81Z"/><path class="cls-1" d="m368.37,169.64h-.29c-4.1-.26-7.46-1.82-10.06-4.69-2.6-2.86-3.94-6.64-4-11.33,0-5.21.2-10.42.59-15.62.46-7.94.85-21,1.17-39.16.26-12.63.55-24.25.88-34.86l.1-1.27c0-3.71-2.08-5.57-6.25-5.57-7.1,0-14.13-.49-21.09-1.46-4.3-.72-7.58-2.34-9.86-4.88-2.02-2.34-3.03-5.08-3.03-8.2v-.88c.85-7.42,5.79-11.43,14.84-12.01,5.21-.13,10.45-.2,15.72-.2l22.36.1c3.19-.2,6.48-.29,9.86-.29l10.16.2c3.45,0,6.9-.1,10.35-.29h1.07c1.3-.13,2.57-.2,3.81-.2,1.3,0,2.57.07,3.81.2,7.1,1.24,11.29,5.18,12.6,11.82l.1,2.25c0,6.12-3.16,10.61-9.47,13.48-4.1,1.37-8.3,2.05-12.6,2.05h-1.56l-3.91.1c-4.43,0-7.15.5-8.15,1.51-1.01,1.01-1.51,3.31-1.51,6.88v44.04l.1,34.77c0,3.39-.23,6.71-.68,9.96-.78,4.3-2.56,7.63-5.32,10.01-2.77,2.38-6.01,3.56-9.72,3.56Z"/><path class="cls-1" d="m451,169.74c-3.32,0-6.33-1.07-9.03-3.22-2.7-2.15-4.54-5.57-5.52-10.25-.72-4.36-1.07-8.76-1.07-13.18l.1-3.03.1-15.14c0-17.38.59-35.68,1.76-54.88l.1-4.98c0-2.28-.07-4.52-.2-6.74-.13-1.89-.2-3.81-.2-5.76.13-14.65,7.39-22.36,21.78-23.14,5.01-.13,9.99-.2,14.94-.2h5.96c7.36,0,14.09,2.05,20.21,6.15,4.23,3.45,6.35,7.36,6.35,11.72,0,1.56-.26,3.16-.78,4.79-2.02,5.34-6.19,8.01-12.5,8.01-2.02,0-5.05-.45-9.08-1.37-3.39-.98-6.87-1.46-10.45-1.46-3.26,0-5.57.42-6.93,1.27-.98.52-1.46,1.66-1.46,3.42l.1,5.18c0,1.63-.05,3.24-.15,4.83-.1,1.6-.15,3.17-.15,4.74,0,3.78.36,7.52,1.07,11.23,1.69.46,3.32.68,4.88.68,1.3,0,2.62-.13,3.96-.39,1.33-.26,2.72-.39,4.15-.39h1.07c9.38.98,14.55,5.37,15.53,13.18v.29c0,7.42-4.62,12.24-13.87,14.45-.91.13-1.89.2-2.93.2-.98,0-1.95-.06-2.93-.2-.98-.13-1.89-.2-2.73-.2-1.04,0-2.26.11-3.66.34-1.4.23-2.59,1.35-3.56,3.37-.72,1.43-1.07,2.64-1.07,3.61,0,.39.06.81.2,1.27.2.78.33,2.08.39,3.91l.29,11.13.29,13.87c-.2,10.09-4.49,15.69-12.89,16.8l-2.05.1Z"/><path class="cls-1" d="m562.15,170.13c-9.12,0-17.48-3.97-25.1-11.91-9.9-11-15.23-23.79-16.02-38.38l-.1-5.47c0-11.07.33-20.07.98-27,.65-6.93,2.02-13.69,4.1-20.26,2.34-7.68,5.7-14.7,10.06-21.04,4.36-6.35,10.61-11.28,18.75-14.79,3.32-1.37,6.64-2.05,9.96-2.05,4.23,0,8.4,1.14,12.5,3.42,11,5.86,18.95,13.41,23.83,22.66,6.45,12.17,9.67,26.4,9.67,42.68,0,12.96-2.44,26.5-7.32,40.62-4.1,11.98-11.95,20.96-23.54,26.95-6.19,3.06-12.11,4.59-17.77,4.59Zm1.17-29.98c2.86-.2,5.21-1.27,7.03-3.22,2.28-2.47,4-5.47,5.18-8.98,2.73-8.59,4.39-17.22,4.98-25.88l.1-4.39c0-7.23-1.04-14.49-3.12-21.78-.98-3.91-2.77-7.49-5.37-10.74-3.52-4.04-6.48-6.05-8.89-6.05-.2,0-.94.08-2.25.24-1.3.16-3.11,2.93-5.42,8.3-2.31,5.37-3.76,10.95-4.35,16.75-.52,5.14-.78,10.32-.78,15.53v7.81c0,3.26.15,6.79.44,10.6s1.29,7.76,2.98,11.87c1.11,2.87,2.33,5.21,3.66,7.03,1.33,1.82,3.27,2.8,5.81,2.93Z"/><path class="cls-1" d="m647.72,169.84c-14.84-.07-22.27-7.32-22.27-21.78v-1.46c.06-6.64.13-16.41.2-29.3.06-12.89.15-25.73.24-38.53s.15-22.51.15-29.15v-1.66c0-3.06.29-6.05.88-8.98,2.08-6.45,6.35-9.7,12.79-9.77,5.99.2,10.06,3.16,12.21,8.89.85,2.67,1.27,5.4,1.27,8.2v1.07l.1,1.76c.33,10.09.68,19.4,1.07,27.93.98,16.28,1.46,34.15,1.46,53.61v1.95c0,2.93.39,4.8,1.17,5.62.78.81,2.7,1.22,5.76,1.22,5.01,0,10.64-.1,16.89-.29,3.71-.2,7.36-.29,10.94-.29,4.3,0,8.4,1.01,12.3,3.03,5.21,3.32,7.81,7.65,7.81,12.99,0,4.17-1.53,7.68-4.59,10.55-2.28,2.15-5.16,3.34-8.64,3.56-3.48.23-6.95.34-10.4.34h-2.64c-5.73,0-11.43.07-17.09.2-6.58.2-13.12.29-19.63.29Z"/><path class="cls-1" d="m739.43,169.93l-1.56-.1c-3.65-.52-6.64-2.08-8.98-4.69-2.34-2.6-3.61-5.92-3.81-9.96v-2.44c0-4.17.13-8.27.39-12.3.2-5.66.29-10.51.29-14.55,0-2.8-.03-5.47-.1-8.01l-.1-5.47c0-8.01.49-18.16,1.46-30.47.91-11.13,1.4-22.72,1.46-34.77v-.78c0-2.28.26-4.49.78-6.64,2.21-7.03,6.67-10.55,13.38-10.55,3.32,0,6.12,1.03,8.4,3.08,2.28,2.05,3.68,4.93,4.2,8.64.46,5.34.68,10.71.68,16.11l-.29,89.36c0,4.23-.62,8.37-1.86,12.4-2.8,7.42-7.58,11.13-14.36,11.13Z"/><path class="cls-1" d="m810.64,170.13c-9.12,0-17.48-3.97-25.1-11.91-9.9-11-15.23-23.79-16.02-38.38l-.1-5.47c0-11.07.33-20.07.98-27,.65-6.93,2.02-13.69,4.1-20.26,2.34-7.68,5.7-14.7,10.06-21.04,4.36-6.35,10.61-11.28,18.75-14.79,3.32-1.37,6.64-2.05,9.96-2.05,4.23,0,8.4,1.14,12.5,3.42,11,5.86,18.95,13.41,23.83,22.66,6.45,12.17,9.67,26.4,9.67,42.68,0,12.96-2.44,26.5-7.32,40.62-4.1,11.98-11.95,20.96-23.54,26.95-6.19,3.06-12.11,4.59-17.77,4.59Zm1.17-29.98c2.86-.2,5.21-1.27,7.03-3.22,2.28-2.47,4-5.47,5.18-8.98,2.73-8.59,4.39-17.22,4.98-25.88l.1-4.39c0-7.23-1.04-14.49-3.12-21.78-.98-3.91-2.77-7.49-5.37-10.74-3.52-4.04-6.48-6.05-8.89-6.05-.2,0-.94.08-2.25.24-1.3.16-3.11,2.93-5.42,8.3-2.31,5.37-3.76,10.95-4.35,16.75-.52,5.14-.78,10.32-.78,15.53v7.81c0,3.26.15,6.79.44,10.6s1.29,7.76,2.98,11.87c1.11,2.87,2.33,5.21,3.66,7.03,1.33,1.82,3.27,2.8,5.81,2.93Z"/></svg>