<?xml version="1.0" encoding="UTF-8"?><svg id="Lag_1" xmlns="http://www.w3.org/2000/svg" width="190mm" height="190mm" viewBox="0 0 538.58 538.58"><defs><style>.cls-1{fill:#a61e11;}</style></defs><path class="cls-1" d="m126.42,74.74l5.05-3.9.48.63s-.09.1-.12.2c-.03.1-.09.35-.16.73-.07.39-.1.83-.08,1.34.02.5.11,1.22.26,2.13.16.92.4,1.93.74,3.04.41,1.39,2.26,7.19,5.56,17.39l1.91,1.25c.25.18.28.38.08.61-1.83,2.23-2.88,3.95-3.13,5.15l-.31.24c-12.08-7.56-18.9-11.82-20.45-12.77-.95-.6-1.83-1.08-2.66-1.42-.82-.35-1.48-.55-1.96-.63-.48-.07-.9-.1-1.24-.1-.35,0-.59.05-.72.11l-.2.1-.48-.63,10.44-8.08.48.63c-.05.08-.1.18-.15.31-.05.13-.08.41-.11.83-.02.43.02.84.12,1.24.11.4.37.87.79,1.42.42.55.99,1.04,1.71,1.49l14.5,9.53-4.75-14.63c-.22-.76-.39-1.35-.53-1.76-.56-1.35-1.18-2.3-1.86-2.87-.68-.57-1.3-.88-1.86-.93l-.87-.05-.48-.63Z"/><path class="cls-1" d="m160.99,75.87l.64-.39,4.25,7-17.34,10.52-.37-.6c.02-.08.05-.19.1-.34.05-.15.07-.49.07-1.02,0-.53-.07-1.11-.2-1.73-.14-.62-.43-1.46-.87-2.53-.44-1.07-1.02-2.19-1.74-3.37l-3.95-6.51c-.65-1.08-1.29-2.03-1.89-2.87-.61-.83-1.14-1.49-1.6-1.96-.46-.47-.89-.88-1.29-1.23s-.73-.57-1-.68c-.27-.11-.51-.19-.71-.24-.2-.05-.35-.06-.44-.04l-.14.03-.39-.64,16.96-10.29,4.28,6.88-.68.41c-.22-.07-.5-.18-.87-.32-.36-.14-1.06-.37-2.11-.68-1.05-.31-2.04-.54-2.97-.69-.93-.15-1.95-.2-3.06-.12-1.11.07-2.04.33-2.79.79l6.23,10.27c.63-.38,1.12-.83,1.47-1.35.35-.52.57-1.02.64-1.49.07-.47.1-.92.09-1.34-.01-.42-.07-.76-.15-1.01l-.09-.41.64-.39,4.47,7.37-.64.39c-.07-.06-.18-.15-.32-.27-.14-.12-.42-.3-.83-.55-.41-.25-.83-.44-1.27-.57-.44-.13-.97-.16-1.6-.09s-1.24.29-1.84.65l6.44,10.61c.88-.53,1.64-1.28,2.29-2.24.65-.96,1.13-1.94,1.44-2.93s.55-1.95.73-2.86c.18-.92.28-1.67.3-2.27l.09-.88Z"/><path class="cls-1" d="m181.32,65.93l.67-.32,3.53,7.38-18.3,8.76-.3-.63c.03-.08.07-.19.13-.33.06-.14.12-.48.17-1.01.05-.53.04-1.11-.03-1.74s-.28-1.5-.61-2.61c-.33-1.11-.8-2.28-1.4-3.53l-3.57-7.46c-.6-1.24-1.21-2.34-1.84-3.29-.63-.95-1.19-1.65-1.67-2.1s-.92-.82-1.33-1.1c-.41-.28-.71-.45-.91-.52l-.33-.08-.3-.64,10.88-5.2.3.63c-.03.08-.07.19-.13.33-.06.14-.12.47-.18.99s-.06,1.1,0,1.75c.07.65.27,1.52.59,2.62.33,1.09.8,2.28,1.41,3.55l7.27,15.2c1.03-.49,1.95-1.2,2.74-2.12s1.38-1.85,1.76-2.79c.38-.94.68-1.85.91-2.73.23-.87.37-1.6.42-2.18l.09-.83Z"/><path class="cls-1" d="m205.38,59.41c.53.38,1.07.73,1.62,1.05s1.06.59,1.55.79c.49.21.97.38,1.44.53.47.15.89.27,1.26.36.37.09.7.16.98.2.28.04.5.08.66.1.16.02.24.02.23,0l.26.75-5.95,2.04c-1.28.44-2.59.56-3.95.35-1.36-.2-2.59-.7-3.7-1.5-3.82-2.72-5.86-4.21-6.13-4.46-.91-.74-1.65-.97-2.23-.68l.46,1.33c.45,1.3.94,2.46,1.47,3.47.53,1.01,1.01,1.77,1.43,2.28.42.51.81.92,1.17,1.25.36.33.65.53.86.61l.32.12.23.67-11.4,3.91-.23-.67c.04-.07.09-.18.17-.31.08-.13.17-.46.29-.98.12-.52.17-1.1.17-1.73,0-.63-.1-1.52-.31-2.66-.2-1.14-.53-2.36-.98-3.67l-2.68-7.82c-.45-1.3-.93-2.46-1.45-3.48-.52-1.01-.99-1.78-1.41-2.28-.42-.51-.82-.92-1.19-1.24-.37-.32-.65-.53-.84-.62l-.32-.12-.23-.67,11.4-3.91.23.67c-.04.08-.09.18-.17.31-.08.14-.18.46-.3.96s-.19,1.09-.19,1.74.09,1.54.29,2.67c.2,1.13.53,2.35.99,3.69l1.56,4.54c2.85-5.88,4.56-9.44,5.13-10.69.35-.77.52-1.47.5-2.08-.02-.61-.18-1.09-.46-1.42-.29-.34-.59-.62-.92-.85-.33-.23-.63-.39-.91-.48l-.4-.09-.24-.71,8.62-2.96.26.75c-.19.16-.45.42-.78.78-.33.36-.94,1.22-1.84,2.58-.9,1.36-1.73,2.87-2.49,4.53-.79,1.76-1.53,3.33-2.2,4.71-.17.31-.12.57.17.78.46.34,2.17,1.61,5.14,3.8,2.97,2.19,4.66,3.45,5.08,3.77Z"/><path class="cls-1" d="m214.71,36.47c1.83-1.65,3.98-2.72,6.45-3.21s4.91-.33,7.32.48,4.46,2.14,6.17,3.98c1.71,1.84,2.85,4,3.43,6.45.58,2.46.5,4.86-.23,7.2-.73,2.34-2.01,4.33-3.84,5.96-1.83,1.63-3.98,2.7-6.46,3.19-2.48.49-4.91.34-7.31-.46-2.4-.79-4.46-2.12-6.17-3.98-1.71-1.86-2.86-4.02-3.44-6.47-.58-2.46-.5-4.85.24-7.18.74-2.33,2.02-4.32,3.84-5.96Zm15.65,21.93c.91-.39,1.46-1.3,1.66-2.73.19-1.43.08-3.07-.35-4.91-.43-1.84-1.09-3.68-1.99-5.5-.96-1.96-2.1-3.78-3.43-5.44-1.33-1.67-2.72-2.92-4.16-3.77-1.44-.85-2.67-1.04-3.68-.57-.88.38-1.42,1.29-1.61,2.72s-.07,3.06.36,4.88c.44,1.83,1.09,3.64,1.95,5.44.92,1.94,2.07,3.75,3.43,5.42s2.77,2.94,4.21,3.81c1.44.87,2.64,1.08,3.61.65Z"/><path class="cls-1" d="m276.22,28.8c-.08.06-.18.15-.27.25-.1.11-.28.39-.53.86-.26.47-.48,1.01-.68,1.62-.19.61-.35,1.49-.48,2.64-.12,1.15-.16,2.42-.09,3.79l.37,8.26c.06,1.38.21,2.63.43,3.75.23,1.12.47,1.98.73,2.59.26.61.52,1.12.77,1.53.25.42.47.69.65.83l.23.21.03.7-12,.53-.03-.7c.06-.06.13-.14.23-.25.1-.11.28-.39.53-.86.26-.47.48-1,.68-1.62.19-.61.35-1.49.48-2.64.12-1.15.16-2.42.1-3.79l-.68-15.17-9.64,25.8-12.96-23.91.64,14.33c.06,1.38.2,2.63.41,3.75.21,1.12.46,1.98.73,2.59s.54,1.11.79,1.53.46.69.61.83l.27.16.03.7-5.98.27-.03-.7c.06-.03.14-.1.25-.21s.3-.39.56-.86c.26-.47.48-1.01.65-1.62.18-.61.33-1.49.46-2.64s.16-2.41.1-3.79l-.37-8.26c-.06-1.38-.2-2.63-.41-3.75-.21-1.12-.45-1.98-.71-2.59-.26-.61-.53-1.11-.79-1.53-.27-.41-.48-.69-.63-.83l-.27-.21-.03-.7,9.58-.43,9.92,17.13,6.69-17.87,9.63-.43.03.7Z"/><path class="cls-1" d="m316.96,33.36c-.09.05-.2.12-.31.21-.12.09-.34.34-.67.76s-.64.91-.94,1.48c-.29.57-.59,1.41-.91,2.53-.31,1.11-.55,2.36-.72,3.72l-1.01,8.21c-.17,1.37-.23,2.62-.2,3.77.04,1.14.13,2.03.29,2.67.16.64.33,1.19.51,1.64.18.45.35.76.51.93l.19.25-.09.7-11.92-1.46.09-.7c.07-.05.16-.12.27-.21.11-.09.34-.34.67-.76.33-.42.64-.91.94-1.48.29-.57.59-1.41.91-2.53.31-1.12.55-2.36.72-3.72l1.85-15.07-13.79,23.84-8.81-25.73-1.75,14.24c-.17,1.37-.24,2.62-.22,3.76.02,1.14.12,2.03.29,2.67.17.64.35,1.19.53,1.64.18.45.33.76.46.92l.24.21-.09.7-5.94-.73.09-.7c.06-.02.16-.08.29-.17.13-.09.36-.34.69-.76.33-.42.64-.91.91-1.48.28-.57.57-1.41.89-2.53.31-1.11.55-2.35.72-3.72l1.01-8.21c.17-1.37.24-2.62.22-3.76-.02-1.14-.11-2.03-.27-2.67-.16-.64-.33-1.19-.53-1.64-.2-.45-.36-.76-.49-.92l-.24-.25.09-.7,9.52,1.17,6.95,18.54,9.56-16.51,9.56,1.17-.08.7Z"/><path class="cls-1" d="m335.37,57.93l.72.19-2.08,7.91-19.62-5.17.18-.68c.07-.04.18-.1.32-.17.14-.07.4-.29.79-.66.38-.37.75-.82,1.11-1.35.35-.53.76-1.32,1.22-2.39.46-1.06.87-2.26,1.22-3.59l1.94-7.36c.32-1.22.57-2.34.75-3.35.18-1.02.28-1.85.3-2.52.02-.66.02-1.25,0-1.78-.03-.52-.1-.92-.21-1.19s-.22-.5-.32-.68c-.11-.18-.2-.29-.27-.34l-.12-.08.19-.72,19.19,5.05-1.98,7.85-.77-.2c-.1-.21-.22-.49-.37-.85-.15-.36-.48-1.02-.98-1.99-.5-.97-1.02-1.84-1.56-2.62-.54-.78-1.22-1.54-2.04-2.29-.82-.75-1.65-1.23-2.51-1.46l-3.06,11.62c.71.19,1.37.23,1.99.12.62-.11,1.13-.3,1.52-.58.39-.28.73-.56,1.03-.87.29-.3.5-.57.62-.81l.23-.35.72.19-2.2,8.34-.72-.19c0-.09-.02-.23-.03-.42s-.07-.51-.17-.98-.26-.9-.47-1.31c-.21-.4-.56-.81-1.05-1.21-.49-.4-1.07-.69-1.75-.87l-3.16,12c.99.26,2.06.29,3.21.09s2.18-.53,3.11-1c.93-.47,1.78-.96,2.57-1.46.79-.5,1.4-.96,1.84-1.36l.69-.55Z"/><path class="cls-1" d="m364.31,47.76l5.58,2.17-.25.66c-.07,0-.17.04-.32.09-.15.05-.43.24-.86.56s-.84.73-1.26,1.23c-.42.5-.91,1.24-1.48,2.23-.57.99-1.12,2.14-1.63,3.45l-6.52,16.77-1.07-.41-9.51-28.11-4.72,12.14c-.5,1.29-.88,2.48-1.14,3.59-.26,1.11-.38,2-.38,2.66,0,.66.05,1.24.11,1.72s.14.82.22,1.01l.18.26-.25.66-5.58-2.17.26-.66c.06,0,.17-.04.32-.09.15-.05.43-.24.86-.56.42-.32.84-.73,1.25-1.21.41-.49.9-1.23,1.48-2.23.58-1,1.12-2.15,1.62-3.43l3-7.71c.5-1.28.88-2.48,1.14-3.59.26-1.11.39-2,.4-2.66,0-.66-.03-1.23-.11-1.72s-.16-.83-.24-1.02l-.17-.3.25-.66,8.08,3.14,7.05,20.35,2.42-6.23c.5-1.29.88-2.48,1.14-3.59.26-1.11.39-2,.4-2.65,0-.66-.03-1.23-.11-1.72-.08-.49-.16-.83-.24-1.01l-.17-.3.26-.66Z"/><path class="cls-1" d="m384.93,57.45l20.16,12.16-3.96,6.56-.64-.39c.02-.2.03-.46.04-.8.01-.33-.01-.96-.08-1.87-.07-.91-.19-1.76-.37-2.54-.18-.78-.5-1.58-.95-2.39s-1-1.42-1.65-1.82l-8.73,14.47c-2.23,3.69-3.12,6.56-2.68,8.61l.09.36-.36.6-10.29-6.21.36-.6c.08-.02.19-.05.33-.08.14-.04.45-.17.92-.42.47-.25.96-.57,1.46-.97s1.12-1.05,1.86-1.93c.74-.89,1.47-1.92,2.18-3.1l8.7-14.43c-.65-.39-1.43-.61-2.34-.64-.91-.03-1.78.08-2.61.33-.84.25-1.62.52-2.34.82-.73.3-1.32.57-1.77.81l-.67.42-.64-.39,3.95-6.55Z"/><path class="cls-1" d="m416.87,79.19c-.08.01-.2.03-.36.04-.16.01-.48.12-.97.33-.49.2-1.01.49-1.54.84-.53.36-1.2.94-2.01,1.75-.81.81-1.62,1.79-2.45,2.92l-4.86,6.69c-.81,1.12-1.48,2.18-2,3.2-.52,1.02-.87,1.84-1.04,2.48-.17.64-.29,1.2-.35,1.68-.06.48-.06.83,0,1.06l.08.33-.41.57-9.75-7.09.41-.57c.08-.01.2-.03.36-.04.16-.01.48-.12.97-.33s1-.49,1.52-.86c.52-.37,1.19-.96,2-1.78.81-.82,1.63-1.79,2.44-2.91l4.86-6.69c.81-1.12,1.48-2.18,2.02-3.19.53-1.01.89-1.83,1.06-2.47.17-.64.28-1.2.33-1.69.05-.49.06-.84.02-1.04l-.08-.33.41-.57,9.75,7.09-.41.57Z"/><path class="cls-1" d="m422.17,108.18l.57.49-5.32,6.22-15.42-13.18.46-.54c.08,0,.2-.01.36-.01.16,0,.49-.08,1-.25.51-.16,1.03-.41,1.58-.73.55-.32,1.26-.86,2.14-1.62.88-.75,1.76-1.66,2.66-2.7l5.38-6.29c.9-1.05,1.65-2.05,2.26-3.02s1.03-1.75,1.25-2.38c.22-.62.38-1.17.46-1.66.09-.48.12-.83.11-1.04l-.06-.34.46-.54,9.16,7.83-.46.54c-.08,0-.2.01-.36.01-.16,0-.48.08-.98.23-.5.15-1.03.39-1.6.72-.57.33-1.29.86-2.15,1.6-.87.74-1.76,1.65-2.67,2.72l-10.95,12.81c.87.74,1.88,1.29,3.05,1.65s2.25.52,3.27.48c1.02-.04,1.97-.13,2.87-.27.89-.14,1.61-.31,2.16-.5l.79-.25Z"/><path class="cls-1" d="m469.95,134.08c-.1-.03-.22-.06-.37-.07-.15-.02-.48,0-1.01.08-.53.07-1.1.21-1.7.41-.61.21-1.41.6-2.41,1.18-1,.58-2.04,1.3-3.11,2.17l-6.44,5.19c-1.07.87-2,1.72-2.76,2.56-.77.85-1.32,1.55-1.65,2.12-.33.57-.59,1.08-.78,1.53-.18.45-.28.79-.28,1.02l-.03.31-.55.44-7.53-9.36.55-.44c.08,0,.2.02.34.04s.48-.01,1.01-.08c.53-.07,1.1-.2,1.7-.41.61-.21,1.41-.6,2.41-1.18s2.04-1.3,3.11-2.17l11.83-9.52-26.5,7.49,11.61-24.59-11.17,8.99c-1.07.87-2,1.71-2.78,2.55-.78.83-1.33,1.54-1.65,2.12-.32.58-.58,1.1-.76,1.54-.18.45-.29.78-.31.98l.03.32-.55.44-3.75-4.66.55-.44c.06.03.17.05.32.08.15.03.49,0,1.02-.06.53-.07,1.09-.21,1.69-.43.6-.22,1.4-.62,2.4-1.2s2.04-1.3,3.11-2.17l6.44-5.19c1.07-.86,2-1.71,2.78-2.55.78-.83,1.33-1.54,1.67-2.1s.59-1.08.76-1.54c.17-.46.27-.79.3-1v-.34s.55-.44.55-.44l6.01,7.47-7.94,18.14,18.37-5.18,6.04,7.51-.55.44Z"/><path class="cls-1" d="m478.18,147.97c-.08-.02-.2-.05-.35-.09-.15-.04-.49-.06-1.02-.06-.53,0-1.11.08-1.74.21-.63.13-1.46.43-2.51.88-1.05.45-2.17,1.06-3.36,1.81l-7,4.41c-1.17.74-2.18,1.48-3.04,2.23-.86.75-1.49,1.39-1.89,1.92-.4.53-.71,1-.95,1.43-.24.43-.37.75-.4.98l-.04.34-.6.38-6.43-10.2.59-.38c.08.02.2.05.35.09s.49.06,1.02.06c.53,0,1.11-.08,1.73-.23s1.46-.45,2.52-.91c1.06-.46,2.17-1.06,3.34-1.79l7-4.41c1.17-.74,2.18-1.47,3.05-2.21.87-.74,1.5-1.37,1.9-1.9.4-.53.71-1.01.93-1.45.23-.44.36-.76.41-.96l.04-.34.6-.38,6.43,10.2-.59.38Z"/><path class="cls-1" d="m490.02,168.66l2.71,5.34-.63.32c-.05-.04-.15-.09-.3-.15-.14-.06-.48-.11-1.01-.15-.53-.04-1.12-.02-1.76.08-.64.1-1.51.32-2.59.67-1.09.35-2.26.85-3.51,1.49l-16.05,8.14-.52-1.02,11.67-27.28-11.62,5.89c-1.23.62-2.31,1.26-3.25,1.92-.93.65-1.62,1.23-2.06,1.73-.44.5-.79.95-1.07,1.35-.27.4-.44.7-.51.9l-.04.31-.63.32-2.71-5.34.63-.32c.05.04.15.09.3.15.14.06.48.11,1.01.15s1.11.02,1.74-.07,1.49-.31,2.59-.67,2.26-.85,3.49-1.48l7.38-3.74c1.23-.62,2.31-1.26,3.25-1.92.93-.65,1.62-1.23,2.07-1.71s.8-.94,1.06-1.35c.27-.42.43-.72.5-.92l.08-.33.63-.32,3.92,7.73-8.33,19.86,5.96-3.03c1.23-.62,2.31-1.26,3.25-1.92.93-.66,1.62-1.23,2.07-1.71.44-.49.8-.94,1.07-1.35.27-.42.43-.72.5-.92l.08-.33.63-.32Z"/><path class="cls-1" d="m485.99,205.9l-.49-1.6-.88.27c-1.32.4-2.49.85-3.52,1.35-1.03.5-1.8.95-2.33,1.35-.52.4-.95.78-1.29,1.13-.34.35-.55.63-.64.84l-.13.32-.67.21-3.51-11.53.67-.21c.07.04.18.1.31.18.13.08.46.19.97.33.52.13,1.09.21,1.73.23.63.02,1.53-.05,2.67-.22s2.38-.45,3.7-.85l7.91-2.41c1.32-.4,2.49-.84,3.53-1.33,1.03-.48,1.81-.93,2.33-1.33.52-.4.95-.79,1.28-1.15.33-.36.55-.64.65-.82l.13-.32.67-.21,3.36,11.03c1.1,3.62,1.24,6.65.42,9.09-.82,2.44-2.54,4.06-5.14,4.86-1.4.43-2.77.43-4.11.01s-2.5-1.15-3.49-2.18c-.99-1.03-1.83-2.15-2.52-3.35-.69-1.2-1.22-2.43-1.61-3.7Zm14.88-6.1l-14.27,4.35c.71,1.93,1.84,3.23,3.4,3.91,1.55.68,3.41.69,5.57.03,2.22-.68,3.78-1.72,4.68-3.13s1.11-3.13.61-5.15Z"/><path class="cls-1" d="m506.41,223.39c1.6,1.87,2.62,4.04,3.05,6.53.43,2.49.21,4.92-.65,7.3-.87,2.38-2.24,4.41-4.12,6.08-1.88,1.67-4.06,2.76-6.53,3.28-2.47.52-4.87.38-7.19-.4-2.32-.79-4.28-2.12-5.87-3.98-1.59-1.87-2.6-4.04-3.03-6.53-.43-2.49-.22-4.92.63-7.3.85-2.38,2.23-4.41,4.13-6.07,1.9-1.67,4.08-2.76,6.55-3.28,2.47-.52,4.86-.38,7.17.41,2.31.79,4.27,2.12,5.87,3.98Zm-22.29,15.12c.37.92,1.26,1.49,2.69,1.72,1.42.23,3.06.15,4.92-.23,1.85-.38,3.7-1,5.55-1.86,1.99-.91,3.83-2.01,5.52-3.3,1.7-1.29,2.99-2.65,3.87-4.07.88-1.42,1.1-2.64.66-3.67-.36-.89-1.26-1.45-2.68-1.68-1.42-.23-3.05-.15-4.89.25-1.84.39-3.67,1-5.49,1.82-1.96.88-3.79,1.98-5.5,3.3s-3.01,2.69-3.91,4.12-1.15,2.62-.74,3.59Z"/><path class="cls-1" d="m491.57,271.63c-.88.62-1.67,1.26-2.34,1.9-.68.64-1.19,1.19-1.54,1.65-.35.46-.62.89-.83,1.31-.2.42-.32.72-.36.92-.04.19-.05.36-.05.51l-.79.03-.56-13.85.79-.03c.29.61.89.9,1.8.9.91,0,1.88-.22,2.9-.65,1.02-.42,1.99-.94,2.89-1.55.9-.61,1.5-1.18,1.8-1.72.33-.63.38-1.1.16-1.42-.22-.31-.58-.46-1.07-.44-1.38.06-2.62.19-3.73.39-1.11.21-1.95.44-2.53.7-.58.26-1.06.51-1.44.76-.39.25-.63.47-.74.65l-.21.27-.7.03-.49-12.05.7-.03c.06.06.14.14.25.25.11.11.39.3.86.56.46.26,1,.48,1.61.66.61.18,1.49.33,2.64.46,1.15.13,2.41.17,3.79.11l8.26-.34c1.38-.06,2.63-.19,3.75-.4s1.99-.44,2.59-.7c.61-.26,1.12-.52,1.53-.79.41-.27.69-.48.83-.63l.21-.27.7-.03.47,11.52c.15,3.78-.47,6.75-1.88,8.91-1.41,2.16-3.48,3.29-6.2,3.4-2.14.09-3.91-.61-5.3-2.1s-2.42-3.36-3.07-5.62c-.63,2.67-2.19,4.9-4.7,6.71Zm5.09-12.41c.2,2.05.97,3.59,2.3,4.64,1.33,1.05,3.13,1.52,5.39,1.43,2.31-.09,4.09-.71,5.32-1.85,1.23-1.14,1.86-2.75,1.9-4.83l-14.9.61Z"/><path class="cls-1" d="m513.2,279.46l-1.8,23.47-7.63-.58.06-.75c.18-.08.43-.18.73-.32.3-.14.85-.44,1.64-.91.79-.47,1.49-.96,2.1-1.47.61-.51,1.18-1.15,1.71-1.92.53-.77.82-1.53.88-2.29l-16.85-1.29c-4.3-.33-7.27.16-8.9,1.48l-.28.24-.7-.05.92-11.98.7.05c.05.06.13.15.22.26s.36.32.79.63c.43.31.94.6,1.52.87.58.27,1.44.53,2.56.79,1.13.26,2.38.45,3.75.55l16.8,1.29c.06-.76-.1-1.55-.48-2.38s-.87-1.55-1.47-2.19c-.6-.63-1.19-1.21-1.79-1.72-.59-.52-1.1-.92-1.52-1.22l-.67-.41.06-.75,7.63.58Z"/><path class="cls-1" d="m507.34,325.87l-7.98-1.35.14-.78c.2-.11.47-.26.82-.43.34-.18.98-.55,1.9-1.13.92-.58,1.75-1.17,2.49-1.76.73-.6,1.44-1.33,2.12-2.21.68-.88,1.1-1.75,1.25-2.61l-11.82-2.13c-.13.72-.12,1.39.04,2,.16.61.39,1.1.7,1.47.31.37.62.69.95.95s.61.45.86.56l.37.2-.13.74-8.49-1.53.13-.74c.09-.01.23-.03.41-.06.18-.03.5-.11.96-.25.46-.14.88-.33,1.27-.58s.76-.62,1.12-1.14c.36-.52.61-1.12.73-1.81l-3.77-.68c-1.36-.25-2.61-.38-3.75-.41s-2.04.02-2.69.14c-.65.12-1.2.26-1.66.42s-.78.31-.95.45l-.26.22-.69-.13,2.14-11.86.69.12c.05.07.11.17.19.3.08.13.32.38.72.73.4.35.88.69,1.43,1,.56.31,1.38.65,2.47,1.03,1.09.38,2.32.69,3.68.93l7.49,1.35c1.24.22,2.37.38,3.4.48s1.87.13,2.53.1c.66-.03,1.25-.08,1.77-.15.52-.07.91-.17,1.17-.3.26-.13.48-.26.65-.38.17-.12.28-.22.32-.3l.07-.12.74.13-3.53,19.53Z"/><path class="cls-1" d="m503.05,335.49c.59,2.39.53,4.79-.21,7.2s-2.02,4.49-3.86,6.23c-1.85,1.74-3.98,2.93-6.42,3.57-2.43.64-4.87.64-7.31,0-2.44-.65-4.52-1.85-6.24-3.59-1.72-1.75-2.88-3.81-3.46-6.2-.58-2.38-.51-4.78.23-7.2.73-2.42,2.01-4.49,3.84-6.24s3.97-2.94,6.42-3.57c2.45-.64,4.89-.63,7.33.01,2.44.65,4.51,1.84,6.22,3.59,1.71,1.74,2.86,3.81,3.46,6.2Zm-26.71,3.49c-.08.99.46,1.9,1.63,2.75,1.17.84,2.67,1.51,4.5,2.01,1.83.49,3.76.77,5.79.83,2.18.08,4.32-.08,6.42-.47,2.1-.39,3.86-1.02,5.29-1.89,1.43-.87,2.17-1.86,2.24-2.98.08-.96-.47-1.86-1.64-2.7-1.17-.85-2.66-1.5-4.48-1.98-1.82-.47-3.73-.75-5.72-.84-2.15-.1-4.28.06-6.4.48-2.12.42-3.9,1.06-5.34,1.92-1.44.87-2.2,1.82-2.27,2.87Z"/><path class="cls-1" d="m471.06,370.6l-.3.69-7.5-3.27,8.1-18.6.65.28c.03.08.07.19.12.34.05.15.22.44.53.88.3.44.69.87,1.16,1.3.47.43,1.19.95,2.17,1.57s2.1,1.2,3.36,1.75l7.58,3.3c1.26.55,2.45.98,3.55,1.28,1.1.3,1.98.47,2.64.5.66.03,1.23.02,1.72-.04.49-.06.83-.13,1.02-.2l.31-.15.65.28-4.81,11.05-.65-.28c-.03-.08-.07-.19-.12-.34s-.22-.44-.51-.87c-.29-.43-.68-.87-1.15-1.32-.48-.45-1.2-.98-2.16-1.59s-2.09-1.2-3.38-1.76l-15.45-6.73c-.46,1.05-.69,2.18-.69,3.4,0,1.21.16,2.3.5,3.26.33.96.7,1.85,1.1,2.66.4.81.77,1.45,1.11,1.92l.47.68Z"/><path class="cls-1" d="m480.98,391.98c-.02-.08-.05-.2-.09-.35-.04-.15-.19-.46-.46-.92-.27-.46-.62-.93-1.04-1.41-.43-.48-1.1-1.06-2.01-1.75-.91-.69-1.99-1.36-3.23-2.02l-7.3-3.89c-1.22-.65-2.36-1.16-3.44-1.54-1.08-.38-1.95-.61-2.6-.69-.65-.08-1.22-.12-1.71-.11-.49,0-.83.05-1.05.14l-.32.13-.62-.33,5.68-10.64.62.33c.02.08.05.2.09.35.04.15.19.46.46.92.27.46.62.92,1.06,1.39.43.46,1.11,1.04,2.04,1.74.93.69,2,1.37,3.21,2.01l7.3,3.89c1.22.65,2.36,1.17,3.43,1.56,1.07.39,1.93.62,2.59.71.65.08,1.23.11,1.72.09.49-.02.84-.06,1.04-.12l.32-.13.62.33-5.68,10.64-.62-.33Z"/><path class="cls-1" d="m474.83,400.32c-.12,2.46-.88,4.73-2.28,6.83-1.4,2.1-3.24,3.71-5.51,4.84-2.27,1.13-4.66,1.65-7.18,1.56-2.51-.09-4.84-.8-6.99-2.13-2.15-1.33-3.79-3.08-4.93-5.25-1.14-2.17-1.65-4.48-1.51-6.93.13-2.45.9-4.72,2.3-6.82,1.4-2.1,3.23-3.72,5.49-4.85,2.26-1.14,4.65-1.66,7.18-1.56,2.53.1,4.86.81,7.01,2.14s3.79,3.07,4.92,5.24c1.13,2.16,1.63,4.48,1.51,6.93Zm-26.58-4.4c-.37.92-.11,1.95.76,3.1s2.11,2.22,3.72,3.22c1.61,1,3.37,1.83,5.3,2.48,2.07.71,4.16,1.18,6.28,1.41,2.12.23,3.99.14,5.61-.28,1.62-.42,2.62-1.15,3-2.2.35-.89.09-1.92-.79-3.06s-2.11-2.21-3.71-3.19c-1.6-.98-3.35-1.8-5.23-2.46-2.03-.72-4.11-1.18-6.26-1.4s-4.04-.12-5.67.29c-1.63.41-2.63,1.11-3.01,2.09Z"/><path class="cls-1" d="m418.53,465.24l-4.92,4.07-.5-.61s.08-.11.11-.21c.03-.1.08-.35.13-.74.06-.39.07-.84.03-1.34-.04-.5-.15-1.21-.33-2.12-.18-.91-.46-1.92-.84-3.02-.45-1.38-2.49-7.11-6.12-17.21l-1.95-1.18c-.25-.17-.29-.37-.1-.6,1.76-2.29,2.75-4.04,2.97-5.25l.31-.25c12.32,7.17,19.27,11.2,20.86,12.1.97.57,1.87,1.01,2.7,1.33.83.32,1.49.5,1.98.56.49.06.9.07,1.25.06.35-.02.58-.07.72-.14l.2-.11.5.61-10.17,8.41-.5-.61c.05-.08.1-.18.14-.32.04-.13.07-.41.08-.84,0-.43-.05-.84-.17-1.23-.12-.4-.4-.86-.84-1.39-.44-.53-1.02-1.01-1.75-1.43l-14.8-9.06,5.23,14.46c.24.75.44,1.33.59,1.74.6,1.33,1.25,2.26,1.95,2.81.7.54,1.33.83,1.89.87l.87.02.5.61Z"/><path class="cls-1" d="m383.93,465.24l-.63.41-4.47-6.85,16.99-11.08.38.59c-.02.08-.05.2-.09.35s-.06.49-.04,1.03c.02.53.1,1.11.26,1.72.16.62.47,1.45.95,2.51.48,1.05,1.09,2.16,1.85,3.31l4.16,6.38c.69,1.06,1.35,1.99,1.99,2.8.63.81,1.19,1.45,1.67,1.91.48.46.92.85,1.33,1.18.41.33.75.54,1.02.65.28.1.51.17.72.21.2.04.35.05.44.03l.13-.04.41.63-16.62,10.84-4.5-6.73.66-.43c.22.07.51.17.88.29s1.07.33,2.13.61c1.05.27,2.05.47,2.99.6.94.12,1.96.13,3.06.02,1.1-.11,2.02-.4,2.76-.88l-6.56-10.06c-.61.4-1.09.87-1.42,1.4-.33.53-.53,1.04-.59,1.51s-.07.92-.04,1.34c.03.42.09.76.19,1.01l.11.4-.63.41-4.71-7.22.63-.41c.07.06.18.14.33.26s.43.29.84.53c.42.24.85.41,1.29.53.44.11.98.12,1.6.03.62-.09,1.23-.33,1.82-.71l-6.78-10.39c-.86.56-1.6,1.33-2.22,2.31-.62.98-1.07,1.97-1.34,2.98s-.49,1.96-.64,2.89c-.15.92-.23,1.68-.22,2.27l-.06.88Z"/><path class="cls-1" d="m363.94,475.84l-.66.34-3.77-7.26,18-9.35.33.62c-.03.08-.07.19-.12.34-.06.14-.1.48-.14,1.02-.04.53,0,1.11.09,1.74.09.63.33,1.49.7,2.59.37,1.1.87,2.26,1.51,3.48l3.81,7.34c.64,1.22,1.29,2.3,1.95,3.23.66.93,1.24,1.61,1.73,2.05.49.44.95.79,1.36,1.05.42.26.72.42.92.49l.34.07.32.62-10.7,5.56-.32-.62c.03-.08.07-.19.12-.34.06-.15.11-.48.15-1,.04-.52.02-1.1-.07-1.75-.09-.65-.32-1.51-.68-2.6-.36-1.08-.87-2.25-1.52-3.5l-7.77-14.96c-1.02.53-1.91,1.26-2.67,2.21s-1.32,1.89-1.67,2.85c-.35.96-.62,1.88-.82,2.76-.2.88-.32,1.61-.35,2.19l-.07.83Z"/><path class="cls-1" d="m340.12,483.14c-.54-.36-1.09-.69-1.65-1-.55-.31-1.08-.55-1.58-.74-.5-.19-.98-.35-1.45-.48-.47-.13-.9-.24-1.27-.32-.38-.08-.7-.13-.98-.17-.28-.03-.5-.06-.66-.08-.16-.02-.24-.01-.23.02l-.28-.74,5.88-2.24c1.26-.48,2.57-.64,3.94-.48,1.36.16,2.61.61,3.75,1.38,3.91,2.59,6,4.01,6.28,4.25.93.71,1.68.91,2.25.6l-.5-1.32c-.49-1.29-1.02-2.43-1.58-3.42-.57-.99-1.07-1.74-1.51-2.23-.44-.49-.84-.9-1.21-1.21-.37-.31-.66-.51-.88-.58l-.33-.11-.25-.66,11.27-4.28.25.66c-.03.08-.09.18-.16.32-.07.14-.16.47-.26.99-.1.52-.14,1.1-.12,1.74.02.63.15,1.52.4,2.65.24,1.13.61,2.34,1.1,3.63l2.94,7.73c.49,1.29,1.01,2.43,1.56,3.43.55,1,1.05,1.74,1.49,2.24.44.49.85.89,1.23,1.2.38.31.67.51.86.59l.33.11.25.66-11.27,4.28-.25-.66c.03-.08.09-.18.16-.32s.16-.46.27-.97c.1-.51.15-1.09.14-1.75-.01-.65-.14-1.54-.38-2.66-.24-1.12-.6-2.34-1.11-3.65l-1.7-4.48c-2.66,5.97-4.25,9.59-4.77,10.85-.33.78-.47,1.48-.43,2.09s.21,1.08.51,1.41c.3.33.61.6.95.82.33.22.64.37.92.45l.41.08.27.7-8.51,3.24-.28-.74c.19-.17.44-.43.75-.8.31-.37.9-1.25,1.75-2.64.85-1.39,1.63-2.93,2.34-4.61.73-1.79,1.42-3.38,2.04-4.78.16-.31.1-.57-.2-.77-.47-.32-2.22-1.53-5.26-3.62s-4.77-3.29-5.21-3.6Z"/><path class="cls-1" d="m331.54,506.37c-1.77,1.71-3.88,2.85-6.34,3.42-2.46.57-4.9.49-7.33-.24-2.43-.73-4.53-1.99-6.3-3.78-1.77-1.79-2.98-3.9-3.64-6.34-.66-2.44-.66-4.84,0-7.2s1.87-4.39,3.64-6.09c1.78-1.69,3.89-2.83,6.35-3.4s4.9-.5,7.32.22c2.42.72,4.52,1.97,6.3,3.78,1.77,1.8,2.99,3.92,3.65,6.36.66,2.44.66,4.83,0,7.18-.66,2.35-1.87,4.38-3.64,6.09Zm-16.36-21.4c-.9.42-1.42,1.35-1.57,2.78s.02,3.07.51,4.9c.49,1.83,1.21,3.64,2.17,5.44,1.02,1.93,2.22,3.71,3.61,5.33,1.39,1.62,2.81,2.83,4.28,3.63s2.7.95,3.7.45c.87-.41,1.38-1.34,1.52-2.77.15-1.43-.03-3.06-.52-4.87-.5-1.81-1.21-3.6-2.13-5.38-.99-1.91-2.19-3.68-3.6-5.31-1.42-1.63-2.86-2.85-4.33-3.67-1.47-.82-2.68-1-3.62-.54Z"/><path class="cls-1" d="m270.27,516.05c.08-.07.17-.15.27-.26s.26-.4.51-.88c.24-.48.45-1.02.62-1.64.17-.62.3-1.5.39-2.66s.08-2.42-.03-3.79l-.63-8.25c-.11-1.38-.29-2.62-.55-3.73s-.53-1.97-.81-2.56c-.28-.6-.55-1.1-.82-1.5-.27-.41-.49-.68-.68-.81l-.24-.2-.05-.7,11.98-.92.05.7c-.05.06-.13.15-.22.26-.09.11-.26.4-.51.88-.24.47-.45,1.02-.62,1.64-.17.62-.3,1.5-.39,2.66s-.08,2.42.03,3.79l1.16,15.14,8.81-26.1,13.72,23.48-1.1-14.3c-.11-1.38-.28-2.62-.53-3.73-.25-1.11-.52-1.97-.82-2.56-.29-.59-.58-1.1-.84-1.5-.27-.41-.48-.68-.64-.81l-.28-.16-.05-.7,5.97-.46.05.7c-.06.03-.14.11-.25.22-.11.11-.28.4-.53.88-.24.47-.44,1.02-.6,1.63-.16.62-.28,1.5-.37,2.65s-.08,2.42.03,3.79l.63,8.25c.11,1.37.28,2.62.53,3.73.25,1.11.51,1.97.79,2.56.28.6.56,1.1.84,1.5.28.4.5.67.66.81l.28.2.05.7-9.56.74-10.47-16.8-6.11,18.08-9.61.74-.05-.7Z"/><path class="cls-1" d="m229.44,512.81c.09-.05.2-.12.31-.21.11-.09.33-.35.64-.78.32-.43.61-.93.89-1.51.27-.58.55-1.43.83-2.55.28-1.12.48-2.37.6-3.75l.74-8.24c.12-1.37.15-2.63.07-3.77-.07-1.14-.2-2.03-.38-2.66-.18-.63-.37-1.17-.56-1.62-.2-.45-.37-.75-.54-.91l-.2-.24.06-.7,11.96,1.07-.06.7c-.06.05-.15.13-.26.22-.11.09-.33.35-.64.78-.32.43-.61.93-.89,1.51-.27.58-.55,1.43-.83,2.55-.28,1.12-.48,2.37-.6,3.75l-1.36,15.12,13-24.28,9.64,25.43,1.28-14.29c.12-1.37.16-2.63.1-3.77-.06-1.14-.19-2.03-.38-2.66-.19-.64-.39-1.18-.58-1.62-.2-.44-.36-.75-.49-.91l-.25-.2.06-.7,5.96.54-.06.7c-.06.02-.15.08-.28.17s-.35.35-.67.78c-.32.43-.61.93-.86,1.51s-.53,1.43-.8,2.56c-.28,1.12-.48,2.37-.6,3.75l-.74,8.24c-.12,1.37-.15,2.63-.1,3.77.06,1.14.18,2.03.36,2.66.18.63.37,1.17.58,1.62.21.45.38.75.51.91l.24.24-.06.7-9.55-.86-7.54-18.3-9.02,16.82-9.6-.86.06-.7Z"/><path class="cls-1" d="m210.24,488.86l-.73-.17,1.82-7.98,19.77,4.52-.16.69c-.07.04-.17.1-.31.18-.14.07-.39.3-.76.68-.37.38-.73.84-1.06,1.38s-.71,1.35-1.14,2.42c-.43,1.08-.79,2.29-1.1,3.63l-1.7,7.42c-.28,1.23-.49,2.35-.64,3.38-.14,1.02-.21,1.86-.22,2.52,0,.66.02,1.25.07,1.78.05.52.13.92.25,1.18.12.27.23.49.34.67s.21.29.28.34l.12.07-.17.73-19.35-4.42,1.72-7.91.77.18c.1.2.24.48.4.83s.51,1,1.04,1.95c.54.95,1.08,1.81,1.65,2.57.56.76,1.27,1.5,2.11,2.22.84.72,1.69,1.18,2.55,1.37l2.68-11.71c-.71-.16-1.38-.18-2-.05s-1.12.34-1.5.63-.71.59-1,.9c-.28.31-.48.59-.6.83l-.22.36-.73-.17,1.92-8.41.73.17c0,.09.02.23.04.42.02.18.09.51.21.97.12.46.29.89.52,1.29.22.4.59.79,1.09,1.17.5.38,1.09.66,1.78.81l2.76-12.1c-1-.23-2.07-.23-3.21.01-1.14.24-2.16.6-3.07,1.1-.91.5-1.75,1.01-2.52,1.55-.77.53-1.36,1-1.79,1.42l-.67.57Z"/><path class="cls-1" d="m181.62,499.97l-5.64-1.99.23-.66c.07,0,.17-.04.32-.1.14-.06.42-.25.84-.59.42-.34.82-.76,1.22-1.27.4-.51.87-1.27,1.41-2.28s1.04-2.17,1.51-3.5l5.97-16.98,1.08.38,10.42,27.78,4.32-12.29c.46-1.3.8-2.51,1.02-3.63.22-1.12.32-2.01.29-2.67-.03-.66-.09-1.24-.17-1.71-.08-.48-.17-.81-.25-1l-.19-.25.23-.66,5.64,1.99-.23.67c-.07,0-.17.04-.32.1-.14.06-.42.25-.84.59-.41.34-.82.75-1.21,1.25-.39.5-.86,1.26-1.41,2.28-.55,1.02-1.05,2.18-1.5,3.48l-2.75,7.8c-.46,1.3-.8,2.51-1.02,3.63-.22,1.12-.33,2.01-.31,2.67.02.66.07,1.23.17,1.71.09.48.19.82.28,1.01l.18.29-.23.66-8.18-2.88-7.71-20.11-2.22,6.31c-.46,1.3-.8,2.51-1.02,3.63-.22,1.12-.33,2.01-.31,2.67.02.66.07,1.23.17,1.71.09.48.19.82.28,1.01l.18.29-.23.66Z"/><path class="cls-1" d="m160.7,490.95l-20.54-11.5,3.74-6.68.65.37c0,.2-.01.46-.02.8,0,.33.04.96.14,1.87.09.91.25,1.75.45,2.52.21.77.55,1.56,1.02,2.36.48.8,1.05,1.39,1.71,1.76l8.25-14.74c2.11-3.76,2.91-6.66,2.4-8.69l-.1-.36.34-.61,10.48,5.87-.34.61c-.08.02-.19.05-.33.09-.14.04-.44.19-.91.45-.46.26-.94.6-1.43,1.02-.49.42-1.08,1.08-1.8,1.99-.71.91-1.4,1.97-2.08,3.17l-8.23,14.71c.67.37,1.45.56,2.36.56.91,0,1.77-.13,2.6-.41s1.6-.58,2.32-.9c.72-.32,1.3-.61,1.74-.86l.65-.44.65.37-3.74,6.68Z"/><path class="cls-1" d="m128.06,470.27c.08-.02.2-.03.35-.05.16-.02.48-.14.96-.36.49-.22.99-.52,1.51-.89.52-.37,1.17-.98,1.95-1.82s1.56-1.84,2.35-3l4.64-6.85c.77-1.14,1.41-2.23,1.89-3.26s.81-1.87.96-2.51c.15-.64.25-1.2.29-1.69.04-.48.04-.84-.03-1.06l-.09-.33.39-.58,9.98,6.77-.39.58c-.08.02-.2.03-.35.05-.15.02-.47.14-.96.36-.49.22-.98.52-1.49.9-.51.38-1.15,1-1.94,1.85s-1.57,1.84-2.34,2.98l-4.64,6.85c-.77,1.14-1.41,2.22-1.91,3.25-.5,1.02-.83,1.86-.98,2.5s-.24,1.21-.28,1.7c-.03.49-.03.84,0,1.04l.09.33-.39.58-9.98-6.77.39-.58Z"/><path class="cls-1" d="m121.84,441.48l-.58-.47,5.11-6.39,15.84,12.67-.44.55c-.08,0-.2.02-.36.02-.16,0-.48.1-.99.28-.5.18-1.02.44-1.56.78-.54.34-1.23.9-2.08,1.69-.85.78-1.71,1.71-2.57,2.79l-5.17,6.46c-.86,1.08-1.58,2.11-2.16,3.09-.58.98-.97,1.79-1.17,2.42-.2.63-.34,1.18-.41,1.67-.07.49-.09.83-.07,1.04l.07.34-.44.55-9.41-7.53.44-.55c.08,0,.2-.02.36-.02.16,0,.48-.09.97-.26.49-.17,1.02-.43,1.57-.77.56-.34,1.26-.9,2.1-1.67s1.7-1.71,2.58-2.81l10.53-13.16c-.89-.71-1.93-1.23-3.1-1.55s-2.27-.44-3.28-.37c-1.01.07-1.97.19-2.86.36-.89.17-1.6.36-2.14.57l-.78.27Z"/><path class="cls-1" d="m73.25,417.14c.1.03.23.05.37.06.15.01.48-.03,1.01-.11s1.09-.24,1.69-.47c.6-.22,1.39-.64,2.37-1.26.98-.61,2-1.37,3.04-2.27l6.27-5.39c1.05-.9,1.94-1.78,2.68-2.65.74-.87,1.27-1.59,1.58-2.17.31-.58.56-1.1.73-1.55.17-.46.25-.8.25-1.03l.02-.31.53-.46,7.83,9.11-.53.46c-.08,0-.2-.01-.34-.03-.14-.01-.48.03-1.01.11s-1.09.24-1.69.46c-.6.23-1.39.64-2.37,1.26s-2,1.37-3.04,2.27l-11.51,9.9,26.25-8.35-10.81,24.96,10.88-9.35c1.05-.9,1.94-1.78,2.69-2.64.75-.86,1.28-1.58,1.58-2.17.3-.59.54-1.11.71-1.57.17-.46.26-.79.28-.99l-.04-.31.53-.46,3.9,4.54-.53.46c-.06-.03-.17-.05-.32-.07-.15-.02-.49,0-1.02.09-.53.08-1.08.25-1.67.48-.59.24-1.38.66-2.36,1.27s-2,1.37-3.04,2.27l-6.27,5.39c-1.04.9-1.94,1.78-2.69,2.64s-1.28,1.58-1.6,2.16c-.31.58-.55,1.1-.71,1.57-.16.47-.25.8-.26,1.01v.34s-.53.46-.53.46l-6.25-7.27,7.35-18.38-18.19,5.77-6.28-7.31.53-.46Z"/><path class="cls-1" d="m64.56,403.51c.08.02.2.04.35.08.15.04.49.05,1.03.02s1.11-.11,1.73-.27c.62-.16,1.45-.48,2.48-.96,1.03-.49,2.13-1.13,3.3-1.92l6.85-4.64c1.14-.77,2.13-1.55,2.97-2.33.84-.78,1.44-1.44,1.82-1.98.38-.54.68-1.03.9-1.46.22-.43.34-.76.36-.99l.03-.34.58-.39,6.76,9.98-.58.39c-.08-.02-.2-.04-.35-.08-.15-.04-.49-.05-1.03-.02-.53.02-1.11.12-1.72.29-.61.17-1.44.5-2.49.99-1.05.5-2.14,1.13-3.28,1.9l-6.85,4.64c-1.14.77-2.13,1.54-2.98,2.31s-1.46,1.42-1.83,1.96c-.38.54-.67,1.03-.89,1.48-.21.44-.34.77-.38.97l-.03.34-.58.4-6.76-9.98.58-.4Z"/><path class="cls-1" d="m52.05,383.21l-2.88-5.25.62-.34c.05.04.15.08.3.14.15.05.49.09,1.02.12.53.03,1.12-.02,1.76-.14.64-.12,1.5-.37,2.57-.76,1.08-.39,2.23-.92,3.46-1.6l15.78-8.66.55,1-10.77,27.65,11.42-6.27c1.21-.66,2.27-1.34,3.18-2.02.91-.68,1.58-1.28,2-1.8.42-.51.76-.98,1.02-1.39.26-.41.42-.71.48-.91l.03-.32.62-.34,2.88,5.25-.62.34c-.05-.04-.15-.08-.3-.14-.15-.05-.49-.09-1.02-.12-.53-.03-1.11.02-1.74.13-.62.11-1.48.36-2.57.76-1.09.4-2.23.93-3.44,1.59l-7.25,3.98c-1.21.66-2.27,1.34-3.18,2.02-.91.68-1.58,1.28-2.01,1.78-.43.5-.77.97-1.02,1.39-.25.42-.41.73-.47.93l-.07.34-.62.34-4.17-7.6,7.68-20.12-5.86,3.22c-1.21.66-2.27,1.34-3.18,2.02-.91.68-1.58,1.28-2.01,1.78-.43.5-.77.96-1.02,1.39-.25.42-.41.73-.47.93l-.07.34-.62.34Z"/><path class="cls-1" d="m54.87,345.88l.54,1.58.88-.3c1.3-.45,2.46-.93,3.48-1.46s1.77-1.01,2.28-1.43c.51-.42.92-.81,1.25-1.17.33-.36.53-.65.61-.86l.12-.32.67-.23,3.89,11.41-.67.23c-.07-.04-.18-.09-.31-.17-.13-.08-.46-.17-.98-.29-.52-.12-1.1-.17-1.73-.18-.63,0-1.52.1-2.66.3-1.14.2-2.36.53-3.67.97l-7.83,2.67c-1.3.44-2.47.93-3.48,1.44-1.02.52-1.78.99-2.29,1.41-.51.42-.92.82-1.24,1.19s-.53.65-.62.84l-.12.32-.67.23-3.72-10.91c-1.22-3.58-1.46-6.61-.72-9.07s2.4-4.14,4.98-5.02c1.39-.47,2.76-.52,4.11-.15,1.35.38,2.54,1.06,3.56,2.06,1.02,1,1.9,2.09,2.62,3.27.73,1.18,1.3,2.39,1.73,3.64Zm-14.68,6.58l14.12-4.81c-.77-1.91-1.95-3.17-3.53-3.79s-3.43-.57-5.57.16c-2.19.75-3.72,1.84-4.58,3.28-.86,1.44-1,3.16-.44,5.17Z"/><path class="cls-1" d="m33.89,329.06c-1.66-1.81-2.75-3.95-3.26-6.42-.51-2.47-.37-4.91.41-7.32.79-2.41,2.1-4.48,3.92-6.21,1.83-1.73,3.97-2.89,6.42-3.49,2.45-.6,4.85-.54,7.2.17,2.35.71,4.35,1.97,6,3.79,1.65,1.82,2.73,3.96,3.24,6.43.51,2.47.38,4.91-.39,7.32-.77,2.41-2.08,4.48-3.92,6.21s-3.99,2.9-6.44,3.49-4.85.54-7.18-.17-4.33-1.98-6-3.79Zm21.79-15.84c-.4-.91-1.31-1.45-2.74-1.63-1.43-.18-3.07-.05-4.91.39-1.84.44-3.67,1.12-5.49,2.04-1.95.98-3.76,2.14-5.41,3.48s-2.9,2.74-3.74,4.19-1.02,2.68-.54,3.68c.39.88,1.3,1.41,2.73,1.59,1.43.18,3.06.05,4.88-.41,1.82-.45,3.63-1.12,5.43-2,1.93-.94,3.73-2.1,5.39-3.48,1.66-1.38,2.92-2.79,3.77-4.24.85-1.45,1.06-2.65.62-3.61Z"/><path class="cls-1" d="m47.15,280.37c.86-.65,1.62-1.31,2.28-1.98.66-.67,1.15-1.23,1.49-1.7s.59-.91.78-1.34.3-.73.33-.93c.03-.19.04-.36.03-.51l.79-.06,1.01,13.82-.79.06c-.31-.59-.92-.87-1.83-.84-.91.04-1.87.28-2.88.74-1.01.46-1.96,1-2.83,1.64s-1.46,1.23-1.75,1.78c-.31.64-.34,1.11-.12,1.42.23.31.59.44,1.09.41,1.38-.1,2.61-.27,3.71-.51,1.1-.24,1.93-.5,2.5-.78.57-.28,1.04-.55,1.42-.81.38-.26.62-.49.72-.67l.2-.28.7-.05.88,12.02-.7.05c-.06-.05-.15-.14-.26-.25-.11-.11-.4-.29-.88-.53-.47-.24-1.02-.45-1.63-.61-.61-.16-1.5-.29-2.65-.38-1.15-.09-2.42-.09-3.79.01l-8.25.6c-1.38.1-2.62.27-3.73.52-1.11.24-1.97.5-2.57.78-.6.28-1.1.56-1.5.84s-.68.5-.81.66l-.2.28-.7.05-.84-11.5c-.28-3.77.25-6.76,1.59-8.96s3.37-3.4,6.09-3.6c2.14-.16,3.93.48,5.37,1.92,1.44,1.44,2.53,3.28,3.25,5.52.54-2.69,2.03-4.97,4.48-6.86Zm-4.68,12.56c-.27-2.04-1.08-3.56-2.45-4.56-1.37-1-3.18-1.42-5.43-1.26-2.31.17-4.06.84-5.26,2.02-1.19,1.18-1.77,2.81-1.74,4.89l14.88-1.09Z"/><path class="cls-1" d="m25.28,273.24l1.04-23.52,7.65.34-.03.75c-.18.08-.42.2-.72.34-.3.15-.84.47-1.61.96-.77.5-1.45,1.01-2.05,1.54s-1.15,1.19-1.65,1.97c-.5.79-.77,1.56-.81,2.32l16.88.75c4.31.19,7.26-.4,8.84-1.77l.28-.25.7.03-.53,12-.7-.03c-.06-.06-.13-.15-.23-.25-.1-.11-.37-.31-.81-.61-.44-.3-.96-.57-1.55-.82-.59-.25-1.45-.48-2.59-.71-1.13-.23-2.39-.37-3.77-.43l-16.84-.74c-.03.76.15,1.55.56,2.36s.92,1.52,1.54,2.14c.62.62,1.23,1.17,1.84,1.67.61.5,1.13.89,1.56,1.17l.69.38-.03.75-7.65-.34Z"/><path class="cls-1" d="m29.63,226.67l8.02,1.09-.12.78c-.2.12-.46.27-.8.46s-.96.58-1.87,1.19c-.9.61-1.71,1.22-2.43,1.84-.71.62-1.4,1.38-2.05,2.28-.65.9-1.04,1.78-1.17,2.65l11.88,1.75c.11-.73.07-1.39-.11-2s-.43-1.08-.74-1.44c-.32-.36-.64-.67-.98-.92-.33-.26-.62-.43-.88-.53l-.37-.19.11-.74,8.53,1.25-.11.74c-.09.02-.23.04-.41.07-.18.03-.5.13-.95.28-.45.16-.87.36-1.25.62-.38.26-.74.65-1.08,1.17-.34.53-.57,1.14-.67,1.84l3.79.56c1.36.2,2.62.3,3.76.29,1.14,0,2.04-.09,2.68-.23.64-.14,1.19-.3,1.65-.47.46-.17.77-.33.94-.49l.26-.23.7.1-1.75,11.93-.7-.1c-.05-.07-.12-.17-.2-.3-.08-.13-.33-.37-.74-.71s-.9-.66-1.46-.95c-.56-.29-1.4-.61-2.51-.95-1.11-.34-2.34-.61-3.71-.81l-7.53-1.11c-1.25-.18-2.39-.31-3.42-.37-1.03-.06-1.87-.07-2.53-.02-.66.05-1.25.12-1.76.21s-.9.2-1.16.34c-.26.14-.47.27-.64.4-.17.12-.27.23-.31.31l-.06.12-.74-.11,2.89-19.63Z"/><path class="cls-1" d="m33.6,216.91c-.67-2.37-.68-4.77-.03-7.2.65-2.44,1.87-4.56,3.66-6.35,1.79-1.8,3.89-3.06,6.29-3.78,2.41-.72,4.84-.8,7.3-.23,2.46.57,4.58,1.7,6.36,3.39,1.78,1.69,3,3.72,3.66,6.08.66,2.36.66,4.76.01,7.2-.65,2.44-1.86,4.56-3.64,6.36-1.77,1.8-3.87,3.06-6.29,3.78s-4.87.79-7.33.23c-2.46-.57-4.57-1.69-6.34-3.38-1.76-1.69-2.98-3.71-3.66-6.08Zm26.58-4.37c.05-.99-.52-1.88-1.72-2.69s-2.72-1.42-4.56-1.86c-1.84-.43-3.78-.65-5.82-.64-2.18,0-4.32.22-6.4.68-2.08.46-3.82,1.15-5.22,2.06-1.4.92-2.11,1.93-2.14,3.05-.04.96.53,1.84,1.73,2.65,1.2.81,2.71,1.42,4.54,1.83,1.83.42,3.75.63,5.75.65,2.15.03,4.27-.2,6.38-.69,2.1-.48,3.86-1.18,5.28-2.1s2.14-1.89,2.18-2.95Z"/><path class="cls-1" d="m64.43,180.77l.28-.7,7.61,3.02-7.48,18.85-.65-.26c-.03-.08-.07-.19-.13-.33-.05-.15-.24-.43-.56-.86-.32-.43-.72-.85-1.21-1.26-.48-.41-1.22-.91-2.22-1.5-1-.59-2.14-1.13-3.42-1.64l-7.69-3.05c-1.28-.51-2.48-.9-3.59-1.16-1.11-.27-1.99-.4-2.65-.41-.66,0-1.23.02-1.72.1-.49.08-.83.15-1.02.24l-.3.16-.65-.26,4.45-11.21.65.26c.03.08.08.19.13.33.05.15.23.43.54.85.31.42.71.85,1.2,1.28s1.23.94,2.21,1.52c.99.58,2.13,1.13,3.44,1.65l15.66,6.22c.42-1.06.61-2.2.58-3.42-.04-1.21-.24-2.3-.6-3.25-.36-.95-.76-1.82-1.18-2.62-.42-.8-.81-1.43-1.17-1.88l-.49-.67Z"/><path class="cls-1" d="m53.81,159.73c.03.08.06.19.1.34.04.15.2.45.49.9.29.45.65.91,1.09,1.37.44.46,1.13,1.02,2.07,1.68.94.66,2.04,1.3,3.3,1.92l7.42,3.65c1.24.61,2.4,1.08,3.49,1.42,1.09.34,1.96.54,2.62.6s1.23.08,1.71.06.83-.08,1.04-.17l.31-.14.63.31-5.33,10.82-.63-.31c-.03-.08-.06-.19-.1-.34-.04-.15-.2-.45-.49-.9-.28-.45-.65-.9-1.1-1.35-.45-.45-1.15-1.01-2.1-1.67-.95-.66-2.04-1.3-3.28-1.91l-7.42-3.65c-1.24-.61-2.4-1.09-3.48-1.45-1.08-.35-1.96-.56-2.61-.62-.66-.06-1.23-.07-1.72-.04-.49.04-.84.09-1.03.15l-.31.14-.63-.31,5.33-10.82.63.31Z"/><path class="cls-1" d="m59.68,151.18c.04-2.46.73-4.76,2.06-6.9,1.33-2.14,3.11-3.82,5.34-5.02,2.23-1.2,4.61-1.8,7.12-1.79,2.52,0,4.87.64,7.06,1.9s3.89,2.95,5.1,5.09c1.21,2.13,1.79,4.43,1.74,6.88s-.75,4.75-2.08,6.89c-1.33,2.14-3.11,3.82-5.33,5.03-2.22,1.21-4.59,1.81-7.12,1.79-2.53-.02-4.89-.65-7.08-1.91s-3.88-2.95-5.08-5.08c-1.2-2.13-1.78-4.42-1.74-6.88Zm26.71,3.54c.34-.93.05-1.96-.86-3.07-.91-1.12-2.19-2.15-3.82-3.1-1.64-.95-3.43-1.72-5.38-2.31-2.09-.64-4.2-1.04-6.32-1.21-2.13-.16-3.99,0-5.6.46-1.6.47-2.58,1.24-2.93,2.3-.32.91-.03,1.92.88,3.04s2.18,2.14,3.82,3.07c1.63.93,3.4,1.69,5.31,2.29,2.05.65,4.15,1.05,6.3,1.2,2.15.15,4.04-.01,5.66-.47,1.62-.46,2.6-1.19,2.94-2.19Z"/></svg>