<?xml version="1.0" encoding="UTF-8"?><svg id="Lag_1" xmlns="http://www.w3.org/2000/svg" width="1000mm" height="350mm" viewBox="0 0 2834.65 992.13"><defs><style>.cls-1{fill:#a4d1d3;}</style></defs><polygon class="cls-1" points="789.61 570.03 555.37 569.87 467.43 831.8 361.62 579.59 118.92 606.28 277.76 433.78 225.71 205.14 433.92 352.45 640.21 182.74 613.1 415.66 789.61 570.03"/><polygon class="cls-1" points="2038.84 826.71 2092.37 598.68 1857.37 453.37 2127.05 407.81 2156.37 165.41 2271.19 394.06 2522.62 360.79 2331.75 529.96 2449.99 769.49 2229.37 690.03 2038.84 826.71"/><polygon class="cls-1" points="1670.86 488.59 1446.42 555.59 1437.27 831.74 1263.59 620.46 1038.73 715.61 1179.96 502.26 1026.02 300.7 1267.72 382.12 1416.7 160.39 1423.97 419.42 1670.86 488.59"/></svg>